<svg xmlns="http://www.w3.org/2000/svg" xmlns:xlink="http://www.w3.org/1999/xlink" id="Layer_1" x="0" y="0" enable-background="new 0 0 83.9 58.7" version="1.0" viewBox="0 0 83.9 58.7" xml:space="preserve"><switch><g><g><g><defs><path id="SVGID_1_" d="M1,50.9V54c0,1.5,1.3,3.7,2.8,3.7h77.1c1.5,0,2-2.2,2-3.7v-3.1H1z"/></defs><clipPath id="SVGID_2_"><use overflow="visible" xlink:href="#SVGID_1_"/></clipPath><g clip-path="url(#SVGID_2_)"><defs><rect id="SVGID_3_" width="1300" height="1363" x="-144.8" y="-739.8"/></defs><clipPath id="SVGID_4_"><use overflow="visible" xlink:href="#SVGID_3_"/></clipPath><rect width="91.9" height="16.8" x="-4" y="45.9" fill="#106BA0" clip-path="url(#SVGID_4_)"/></g></g><g><path fill="none" stroke="#0B4A7B" stroke-miterlimit="10" stroke-width="2" d="M1,50.9V54c0,1.5,1.3,3.7,2.8,3.7h77.1 c1.5,0,2-2.2,2-3.7v-3.1H1z"/></g><g><defs><path id="SVGID_5_" d="M79.5,50.9V4.3c0-1.5-1-3.3-2.4-3.3H7.5C6,1,6,2.8,6,4.3v46.7H79.5z"/></defs><clipPath id="SVGID_6_"><use overflow="visible" xlink:href="#SVGID_5_"/></clipPath><g clip-path="url(#SVGID_6_)"><defs><rect id="SVGID_7_" width="1300" height="1363" x="-144.8" y="-739.8"/></defs><clipPath id="SVGID_8_"><use overflow="visible" xlink:href="#SVGID_7_"/></clipPath><rect width="83.5" height="59.9" x="1" y="-4" fill="#106BA0" clip-path="url(#SVGID_8_)"/></g></g><g><path fill="none" stroke="#0B4A7B" stroke-miterlimit="10" stroke-width="2" d="M79.5,50.9V4.3c0-1.5-1-3.3-2.4-3.3H7.5 C6,1,6,2.8,6,4.3v46.7H79.5z"/></g><g><defs><rect id="SVGID_9_" width="83.5" height="58.4" x=".2" y=".2"/></defs><clipPath id="SVGID_10_"><use overflow="visible" xlink:href="#SVGID_9_"/></clipPath><g clip-path="url(#SVGID_10_)"><defs><rect id="SVGID_11_" width="1300" height="1363" x="-144.8" y="-739.8"/></defs><clipPath id="SVGID_12_"><use overflow="visible" xlink:href="#SVGID_11_"/></clipPath><g clip-path="url(#SVGID_12_)"><g><defs><rect id="SVGID_13_" width="77" height="60" x="4.2" y="-1.8"/></defs><clipPath id="SVGID_14_"><use overflow="visible" xlink:href="#SVGID_13_"/></clipPath><g clip-path="url(#SVGID_14_)"><defs><rect id="SVGID_15_" width="66.6" height="43.7" x="9.2" y="4.1"/></defs><clipPath id="SVGID_16_"><use overflow="visible" xlink:href="#SVGID_15_"/></clipPath><g clip-path="url(#SVGID_16_)"><defs><rect id="SVGID_17_" width="84" height="59" x=".2" y=".2"/></defs><clipPath id="SVGID_18_"><use overflow="visible" xlink:href="#SVGID_17_"/></clipPath><rect width="76.6" height="53.7" x="4.2" y="-.9" fill="#18B0E1" clip-path="url(#SVGID_18_)"/></g></g><g clip-path="url(#SVGID_14_)"><defs><rect id="SVGID_19_" width="84" height="59" x=".2" y=".2"/></defs><clipPath id="SVGID_20_"><use overflow="visible" xlink:href="#SVGID_19_"/></clipPath><rect width="66.6" height="43.7" x="9.2" y="4.1" fill="none" stroke="#0B4A7B" stroke-miterlimit="10" clip-path="url(#SVGID_20_)"/></g><g clip-path="url(#SVGID_14_)"><defs><path id="SVGID_21_" d="M50.4,51.3L50.4,51.3c0,1-0.8,1.7-1.7,1.7H35.3c-0.9,0-1.7-0.8-1.7-1.7"/></defs><clipPath id="SVGID_22_"><use overflow="visible" xlink:href="#SVGID_21_"/></clipPath><g clip-path="url(#SVGID_22_)"><defs><rect id="SVGID_23_" width="84" height="59" x=".2" y=".2"/></defs><clipPath id="SVGID_24_"><use overflow="visible" xlink:href="#SVGID_23_"/></clipPath><rect width="26.8" height="11.7" x="28.6" y="46.3" fill="#106BA0" clip-path="url(#SVGID_24_)"/></g></g><g clip-path="url(#SVGID_14_)"><defs><rect id="SVGID_25_" width="84" height="59" x=".2" y=".2"/></defs><clipPath id="SVGID_26_"><use overflow="visible" xlink:href="#SVGID_25_"/></clipPath><path fill="none" stroke="#0B4A7B" stroke-miterlimit="10" d="M50.4,51.3L50.4,51.3 c0,1-0.8,1.7-1.7,1.7H35.3c-0.9,0-1.7-0.8-1.7-1.7" clip-path="url(#SVGID_26_)"/></g><g clip-path="url(#SVGID_14_)"><defs><path id="SVGID_27_" d="M66.8,43.7H17.3c-0.8,0-1.4-0.6-1.4-1.4V11.8c0-0.8,0.6-1.4,1.4-1.4h49.4c0.8,0,1.4,0.6,1.4,1.4 v30.6C68.2,43.1,67.5,43.7,66.8,43.7"/></defs><clipPath id="SVGID_28_"><use overflow="visible" xlink:href="#SVGID_27_"/></clipPath><g clip-path="url(#SVGID_28_)"><defs><rect id="SVGID_29_" width="84" height="59" x=".2" y=".2"/></defs><clipPath id="SVGID_30_"><use overflow="visible" xlink:href="#SVGID_29_"/></clipPath><rect width="62.2" height="43.4" x="11" y="5.4" fill="#FEFEFE" clip-path="url(#SVGID_30_)"/></g></g><g clip-path="url(#SVGID_14_)"><defs><rect id="SVGID_31_" width="84" height="59" x=".2" y=".2"/></defs><clipPath id="SVGID_32_"><use overflow="visible" xlink:href="#SVGID_31_"/></clipPath><path fill="none" stroke="#0B4A7B" stroke-miterlimit="10" stroke-width="2" d="M66.8,43.7 H17.3c-0.8,0-1.4-0.6-1.4-1.4V11.8c0-0.8,0.6-1.4,1.4-1.4h49.4c0.8,0,1.4,0.6,1.4,1.4v30.6C68.2,43.1,67.5,43.7,66.8,43.7z" clip-path="url(#SVGID_32_)"/></g><g clip-path="url(#SVGID_14_)"><defs><polyline id="SVGID_33_" points="26.4 33.7 36.4 28.7 42.3 33.7 46.6 24.9 52.9 30.8 58 17.3"/></defs><clipPath id="SVGID_34_"><use overflow="visible" xlink:href="#SVGID_33_"/></clipPath><g clip-path="url(#SVGID_34_)"><defs><rect id="SVGID_35_" width="84" height="59" x=".2" y=".2"/></defs><clipPath id="SVGID_36_"><use overflow="visible" xlink:href="#SVGID_35_"/></clipPath><rect width="41.6" height="26.4" x="21.4" y="12.3" fill="#FEFEFE" clip-path="url(#SVGID_36_)"/></g></g><g clip-path="url(#SVGID_14_)"><defs><rect id="SVGID_37_" width="84" height="59" x=".2" y=".2"/></defs><clipPath id="SVGID_38_"><use overflow="visible" xlink:href="#SVGID_37_"/></clipPath><polyline fill="none" stroke="#0B4A7B" stroke-miterlimit="10" stroke-width="2" points="26.4 33.7 36.4 28.7 42.3 33.7 46.6 24.9 52.9 30.8 58 17.3" clip-path="url(#SVGID_38_)"/></g></g></g></g></g></g></g></switch></svg>