<svg xmlns="http://www.w3.org/2000/svg" xmlns:xlink="http://www.w3.org/1999/xlink" id="Layer_1" x="0" y="0" enable-background="new 0 0 83.6 61" version="1.0" viewBox="0 0 83.6 61" xml:space="preserve"><switch><g><g><g><defs><path id="SVGID_1_" d="M80.1,60H3.5C2.1,60,1,58.9,1,57.5V10.9c0-1.4,1.1-2.5,2.5-2.5h76.5c1.4,0,2.5,1.1,2.5,2.5v46.6 C82.6,58.9,81.5,60,80.1,60z"/></defs><clipPath id="SVGID_2_"><use overflow="visible" xlink:href="#SVGID_1_"/></clipPath><g clip-path="url(#SVGID_2_)"><defs><rect id="SVGID_3_" width="1300" height="1363" x="-145.8" y="-848.2"/></defs><clipPath id="SVGID_4_"><use overflow="visible" xlink:href="#SVGID_3_"/></clipPath><rect width="91.6" height="61.7" x="-4" y="3.3" fill="#18B0E1" clip-path="url(#SVGID_4_)"/></g></g><g><path fill="none" stroke="#0B4A7B" stroke-miterlimit="10" stroke-width="2" d="M80.1,60H3.5C2.1,60,1,58.9,1,57.5V10.9 c0-1.4,1.1-2.5,2.5-2.5h76.5c1.4,0,2.5,1.1,2.5,2.5v46.6C82.6,58.9,81.5,60,80.1,60z"/><path fill="none" stroke="#0B4A7B" stroke-miterlimit="10" stroke-width="2" d="M28.9,8.5v-5c0-1.4,1.1-2.5,2.5-2.5h20.7 c1.4,0,2.5,1.1,2.5,2.5v4.8"/></g><g><defs><path id="SVGID_5_" d="M74.1,30.9H9.5c-4.7,0-8.5-3.8-8.5-8.5V10.8c0-1.4,1.1-2.5,2.5-2.5h76.5c1.4,0,2.5,1.1,2.5,2.5v11.6 C82.6,27.1,78.8,30.9,74.1,30.9"/></defs><clipPath id="SVGID_6_"><use overflow="visible" xlink:href="#SVGID_5_"/></clipPath><g clip-path="url(#SVGID_6_)"><defs><rect id="SVGID_7_" width="1300" height="1363" x="-145.8" y="-848.2"/></defs><clipPath id="SVGID_8_"><use overflow="visible" xlink:href="#SVGID_7_"/></clipPath><rect width="91.6" height="32.6" x="-4" y="3.3" fill="#18B0E1" clip-path="url(#SVGID_8_)"/></g></g><g><path fill="none" stroke="#0B4A7B" stroke-miterlimit="10" stroke-width="2" d="M74.1,30.9H9.5c-4.7,0-8.5-3.8-8.5-8.5V10.8 c0-1.4,1.1-2.5,2.5-2.5h76.5c1.4,0,2.5,1.1,2.5,2.5v11.6C82.6,27.1,78.8,30.9,74.1,30.9z"/></g><g><defs><path id="SVGID_9_" d="M43.8,38h-4c-0.9,0-1.7-0.8-1.7-1.7v-8.9c0-0.9,0.8-1.7,1.7-1.7h4c0.9,0,1.7,0.8,1.7,1.7v8.9 C45.5,37.3,44.8,38,43.8,38"/></defs><clipPath id="SVGID_10_"><use overflow="visible" xlink:href="#SVGID_9_"/></clipPath><g clip-path="url(#SVGID_10_)"><defs><rect id="SVGID_11_" width="1300" height="1363" x="-145.8" y="-848.2"/></defs><clipPath id="SVGID_12_"><use overflow="visible" xlink:href="#SVGID_11_"/></clipPath><rect width="17.4" height="22.3" x="33.1" y="20.7" fill="#FEFEFE" clip-path="url(#SVGID_12_)"/></g></g><g><path fill="none" stroke="#0B4A7B" stroke-miterlimit="10" stroke-width="2" d="M43.8,38h-4c-0.9,0-1.7-0.8-1.7-1.7v-8.9 c0-0.9,0.8-1.7,1.7-1.7h4c0.9,0,1.7,0.8,1.7,1.7v8.9C45.5,37.3,44.8,38,43.8,38z"/></g><g><defs><rect id="SVGID_13_" width="83.3" height="60.7" x=".2" y=".2"/></defs><clipPath id="SVGID_14_"><use overflow="visible" xlink:href="#SVGID_13_"/></clipPath><g clip-path="url(#SVGID_14_)"><defs><rect id="SVGID_15_" width="1300" height="1363" x="-145.8" y="-848.2"/></defs><clipPath id="SVGID_16_"><use overflow="visible" xlink:href="#SVGID_15_"/></clipPath><g clip-path="url(#SVGID_16_)"><g><defs><rect id="SVGID_17_" width="81" height="43" x="1.2" y="-1.8"/></defs><clipPath id="SVGID_18_"><use overflow="visible" xlink:href="#SVGID_17_"/></clipPath><g clip-path="url(#SVGID_18_)"><defs><rect id="SVGID_19_" width="9.5" height="22.7" x="11.4" y="8.3"/></defs><clipPath id="SVGID_20_"><use overflow="visible" xlink:href="#SVGID_19_"/></clipPath><g clip-path="url(#SVGID_20_)"><defs><rect id="SVGID_21_" width="84" height="61" x=".2" y=".2"/></defs><clipPath id="SVGID_22_"><use overflow="visible" xlink:href="#SVGID_21_"/></clipPath><rect width="19.5" height="32.7" x="6.4" y="3.3" fill="#106BA0" clip-path="url(#SVGID_22_)"/></g></g><g clip-path="url(#SVGID_18_)"><defs><rect id="SVGID_23_" width="84" height="61" x=".2" y=".2"/></defs><clipPath id="SVGID_24_"><use overflow="visible" xlink:href="#SVGID_23_"/></clipPath><rect width="9.5" height="22.7" x="11.4" y="8.3" fill="none" stroke="#0B4A7B" stroke-miterlimit="10" stroke-width="2" clip-path="url(#SVGID_24_)"/></g><g clip-path="url(#SVGID_18_)"><defs><rect id="SVGID_25_" width="9.5" height="22.7" x="62.3" y="8.3"/></defs><clipPath id="SVGID_26_"><use overflow="visible" xlink:href="#SVGID_25_"/></clipPath><g clip-path="url(#SVGID_26_)"><defs><rect id="SVGID_27_" width="84" height="61" x=".2" y=".2"/></defs><clipPath id="SVGID_28_"><use overflow="visible" xlink:href="#SVGID_27_"/></clipPath><rect width="19.5" height="32.7" x="57.3" y="3.3" fill="#106BA0" clip-path="url(#SVGID_28_)"/></g></g><g clip-path="url(#SVGID_18_)"><defs><rect id="SVGID_29_" width="84" height="61" x=".2" y=".2"/></defs><clipPath id="SVGID_30_"><use overflow="visible" xlink:href="#SVGID_29_"/></clipPath><rect width="9.5" height="22.7" x="62.3" y="8.3" fill="none" stroke="#0B4A7B" stroke-miterlimit="10" stroke-width="2" clip-path="url(#SVGID_30_)"/></g></g></g></g></g></g></g></switch></svg>