<svg xmlns="http://www.w3.org/2000/svg" xmlns:xlink="http://www.w3.org/1999/xlink" id="Layer_1" x="0" y="0" enable-background="new 0 0 44.3 62.1" version="1.0" viewBox="0 0 44.3 62.1" xml:space="preserve"><switch><g><g><g><defs><path id="SVGID_1_" d="M40.8,61.1H3.5c-1.4,0-2.5-1.1-2.5-2.5v-55C1,2.1,2.1,1,3.5,1h37.3c1.4,0,2.5,1.1,2.5,2.5v55 C43.3,59.9,42.2,61.1,40.8,61.1"/></defs><clipPath id="SVGID_2_"><use overflow="visible" xlink:href="#SVGID_1_"/></clipPath><g clip-path="url(#SVGID_2_)"><defs><rect id="SVGID_3_" width="1300" height="1363" x="-164" y="-943.7"/></defs><clipPath id="SVGID_4_"><use overflow="visible" xlink:href="#SVGID_3_"/></clipPath><rect width="52.3" height="70.1" x="-4" y="-4" fill="#106BA0" clip-path="url(#SVGID_4_)"/></g></g><g><path fill="none" stroke="#0B4A7B" stroke-miterlimit="10" stroke-width="2" d="M40.8,61.1H3.5c-1.4,0-2.5-1.1-2.5-2.5v-55 C1,2.1,2.1,1,3.5,1h37.3c1.4,0,2.5,1.1,2.5,2.5v55C43.3,59.9,42.2,61.1,40.8,61.1z"/></g><g><defs><path id="SVGID_5_" d="M25.5,55.3c0,1.9-1.5,3.4-3.4,3.4c-1.9,0-3.4-1.5-3.4-3.4c0-1.9,1.5-3.4,3.4-3.4 C24,51.9,25.5,53.4,25.5,55.3"/></defs><clipPath id="SVGID_6_"><use overflow="visible" xlink:href="#SVGID_5_"/></clipPath><g clip-path="url(#SVGID_6_)"><defs><rect id="SVGID_7_" width="1300" height="1363" x="-164" y="-943.7"/></defs><clipPath id="SVGID_8_"><use overflow="visible" xlink:href="#SVGID_7_"/></clipPath><rect width="16.7" height="16.8" x="13.8" y="46.9" fill="#18B0E1" clip-path="url(#SVGID_8_)"/></g></g><g><ellipse cx="22.2" cy="55.3" fill="none" stroke="#0B4A7B" stroke-miterlimit="10" stroke-width="2" rx="3.4" ry="3.4"/></g><g><defs><path id="SVGID_9_" d="M37.9,47.3H6.1c-0.5,0-0.8-0.4-0.8-0.8V9.6c0-0.5,0.4-0.8,0.8-0.8h31.8c0.5,0,0.8,0.4,0.8,0.8v36.9 C38.7,47,38.3,47.3,37.9,47.3"/></defs><clipPath id="SVGID_10_"><use overflow="visible" xlink:href="#SVGID_9_"/></clipPath><g clip-path="url(#SVGID_10_)"><defs><rect id="SVGID_11_" width="1300" height="1363" x="-164" y="-943.7"/></defs><clipPath id="SVGID_12_"><use overflow="visible" xlink:href="#SVGID_11_"/></clipPath><rect width="43.4" height="48.6" x=".3" y="3.8" fill="#FEFEFE" clip-path="url(#SVGID_12_)"/></g></g><g><path fill="none" stroke="#0B4A7B" stroke-miterlimit="10" stroke-width="2" d="M37.9,47.3H6.1c-0.5,0-0.8-0.4-0.8-0.8V9.6 c0-0.5,0.4-0.8,0.8-0.8h31.8c0.5,0,0.8,0.4,0.8,0.8v36.9C38.7,47,38.3,47.3,37.9,47.3z"/><line x1="16.6" x2="26.3" y1="5.2" y2="5.2" fill="none" stroke="#0B4A7B" stroke-miterlimit="10" stroke-width="2"/></g><g><defs><path id="SVGID_13_" d="M22,35.7c-0.3,0-0.5-0.1-0.7-0.3l-5.8-5.6c0,0-0.1-0.1-0.3-0.3c-0.1-0.1-0.3-0.3-0.5-0.6 c-0.3-0.3-0.5-0.6-0.7-1c-0.2-0.3-0.4-0.7-0.5-1.2c-0.2-0.5-0.2-1-0.2-1.4c0-1.5,0.4-2.7,1.3-3.5c0.9-0.8,2-1.3,3.5-1.3 c0.4,0,0.9,0.1,1.3,0.2c0.4,0.1,0.8,0.3,1.2,0.6c0.4,0.2,0.7,0.5,0.9,0.7c0.2,0.1,0.3,0.2,0.4,0.4c0.1-0.1,0.3-0.3,0.4-0.4 c0.3-0.2,0.6-0.4,0.9-0.7c0.4-0.2,0.8-0.4,1.2-0.6c0.4-0.1,0.9-0.2,1.3-0.2c1.5,0,2.7,0.4,3.5,1.3c0.9,0.9,1.3,2,1.3,3.5 c0,1.5-0.8,3-2.2,4.5l-5.8,5.6C22.5,35.6,22.3,35.7,22,35.7 M18.1,22.5c-0.3,0-0.6,0-0.8,0.1c-0.2,0-0.5,0.1-0.8,0.3 c-0.2,0.1-0.5,0.3-0.6,0.5c-0.2,0.2-0.3,0.4-0.4,0.8c-0.1,0.3-0.2,0.7-0.2,1.2c0,0.9,0.5,1.9,1.6,3l5.1,4.9l5.1-4.9 c1.1-1.1,1.6-2.1,1.6-3c0-0.5-0.1-0.9-0.2-1.2c-0.1-0.3-0.3-0.6-0.4-0.8c-0.2-0.2-0.4-0.3-0.6-0.5c-0.3-0.1-0.5-0.2-0.8-0.3 c-0.3,0-0.5-0.1-0.8-0.1c-0.3,0-0.6,0.1-0.9,0.2c-0.3,0.1-0.6,0.3-0.9,0.5c-0.3,0.2-0.6,0.4-0.8,0.6c-0.2,0.2-0.4,0.4-0.5,0.5 c-0.2,0.2-0.5,0.4-0.8,0.4c-0.3,0-0.6-0.1-0.8-0.4c-0.1-0.2-0.3-0.3-0.5-0.5c-0.2-0.2-0.5-0.4-0.8-0.6 c-0.3-0.2-0.6-0.4-0.9-0.5C18.7,22.6,18.4,22.5,18.1,22.5"/></defs><clipPath id="SVGID_14_"><use overflow="visible" xlink:href="#SVGID_13_"/></clipPath><g clip-path="url(#SVGID_14_)"><defs><rect id="SVGID_15_" width="1300" height="1363" x="-164" y="-943.7"/></defs><clipPath id="SVGID_16_"><use overflow="visible" xlink:href="#SVGID_15_"/></clipPath><rect width="27.4" height="25.2" x="8.3" y="15.5" fill="#0B4A7B" clip-path="url(#SVGID_16_)"/></g></g><g><defs><path id="SVGID_17_" d="M30.3,25.3c0,1.4-0.7,2.8-2.1,4.2l-5.7,5.6c-0.1,0.1-0.2,0.2-0.4,0.2c-0.2,0-0.3-0.1-0.4-0.2l-5.8-5.6 c-0.1-0.1-0.1-0.1-0.3-0.2c-0.1-0.1-0.3-0.3-0.5-0.6c-0.2-0.3-0.4-0.6-0.6-0.9c-0.2-0.3-0.3-0.7-0.5-1.1 c-0.1-0.4-0.2-0.9-0.2-1.3c0-1.4,0.4-2.4,1.2-3.2c0.8-0.8,1.9-1.2,3.2-1.2c0.4,0,0.8,0.1,1.2,0.2c0.4,0.1,0.8,0.3,1.1,0.5 c0.3,0.2,0.6,0.4,0.9,0.6c0.2,0.2,0.5,0.4,0.7,0.6c0.2-0.2,0.5-0.4,0.7-0.6c0.2-0.2,0.5-0.4,0.9-0.6c0.3-0.2,0.7-0.4,1.1-0.5 c0.4-0.1,0.8-0.2,1.2-0.2c1.4,0,2.5,0.4,3.2,1.2C29.9,22.8,30.3,23.9,30.3,25.3z M27.3,28.6c1.2-1.2,1.7-2.3,1.7-3.3 c0-0.5-0.1-1-0.2-1.3c-0.1-0.4-0.3-0.7-0.5-0.9c-0.2-0.2-0.5-0.4-0.8-0.6c-0.3-0.1-0.6-0.2-0.9-0.3c-0.3-0.1-0.6-0.1-0.9-0.1 c-0.3,0-0.7,0.1-1,0.2c-0.4,0.2-0.7,0.4-1,0.6c-0.3,0.2-0.6,0.5-0.8,0.7c-0.2,0.2-0.4,0.4-0.6,0.6c-0.1,0.1-0.3,0.2-0.5,0.2 c-0.2,0-0.3-0.1-0.5-0.2c-0.1-0.2-0.3-0.4-0.6-0.6c-0.2-0.2-0.5-0.4-0.8-0.7c-0.3-0.2-0.6-0.4-1-0.6c-0.4-0.2-0.7-0.2-1-0.2 c-0.3,0-0.6,0-0.9,0.1c-0.3,0-0.6,0.1-0.9,0.3c-0.3,0.1-0.5,0.3-0.8,0.6c-0.2,0.2-0.4,0.5-0.5,0.9c-0.1,0.4-0.2,0.8-0.2,1.3 c0,1,0.6,2.2,1.7,3.3l5.4,5.2L27.3,28.6z"/></defs><clipPath id="SVGID_18_"><use overflow="visible" xlink:href="#SVGID_17_"/></clipPath><g clip-path="url(#SVGID_18_)"><defs><rect id="SVGID_19_" width="1300" height="1363" x="-164" y="-943.7"/></defs><clipPath id="SVGID_20_"><use overflow="visible" xlink:href="#SVGID_19_"/></clipPath><rect width="26.5" height="24.4" x="8.7" y="15.9" fill="#0B4A7B" clip-path="url(#SVGID_20_)"/></g></g></g></g></switch></svg>