<svg xmlns="http://www.w3.org/2000/svg" xmlns:xlink="http://www.w3.org/1999/xlink" id="Layer_1" x="0" y="0" enable-background="new 0 0 82.4 58.7" version="1.0" viewBox="0 0 82.4 58.7" xml:space="preserve"><switch><g><g><g><defs><path id="SVGID_1_" d="M78.9,57.7H3.5c-1.4,0-2.5-1.1-2.5-2.5V8.6c0-1.4,1.1-2.5,2.5-2.5h75.3c1.4,0,2.5,1.1,2.5,2.5v46.5 C81.4,56.5,80.2,57.7,78.9,57.7"/></defs><clipPath id="SVGID_2_"><use overflow="visible" xlink:href="#SVGID_1_"/></clipPath><g clip-path="url(#SVGID_2_)"><defs><rect id="SVGID_3_" width="1300" height="1363" x="-145" y="-1037"/></defs><clipPath id="SVGID_4_"><use overflow="visible" xlink:href="#SVGID_3_"/></clipPath><rect width="90.4" height="61.6" x="-4" y="1.1" fill="#18B0E1" clip-path="url(#SVGID_4_)"/></g></g><g><path fill="none" stroke="#0B4A7B" stroke-miterlimit="10" stroke-width="2" d="M78.9,57.7H3.5c-1.4,0-2.5-1.1-2.5-2.5V8.6 c0-1.4,1.1-2.5,2.5-2.5h75.3c1.4,0,2.5,1.1,2.5,2.5v46.5C81.4,56.5,80.2,57.7,78.9,57.7z"/></g><g><defs><path id="SVGID_5_" d="M78.9,6.1H29.6V3.5c0-1.4-1.1-2.5-2.5-2.5H3.5C2.1,1,1,2.1,1,3.5v5.1v0.2v7.1l80.4,0.3V8.6 C81.4,7.2,80.2,6.1,78.9,6.1"/></defs><clipPath id="SVGID_6_"><use overflow="visible" xlink:href="#SVGID_5_"/></clipPath><g clip-path="url(#SVGID_6_)"><defs><rect id="SVGID_7_" width="1300" height="1363" x="-145" y="-1037"/></defs><clipPath id="SVGID_8_"><use overflow="visible" xlink:href="#SVGID_7_"/></clipPath><rect width="90.4" height="25.2" x="-4" y="-4" fill="#106BA0" clip-path="url(#SVGID_8_)"/></g></g><g><path fill="none" stroke="#0B4A7B" stroke-miterlimit="10" stroke-width="2" d="M78.9,6.1H29.6V3.5c0-1.4-1.1-2.5-2.5-2.5H3.5 C2.1,1,1,2.1,1,3.5v5.1v0.2v7.1l80.4,0.3V8.6C81.4,7.2,80.2,6.1,78.9,6.1z"/></g><g><defs><path id="SVGID_9_" d="M21.6,35.4l8.2,5c0.3,0.2,0.6,0.4,0.7,0.6c0.1,0.2,0.2,0.4,0.2,0.7c0,0.3-0.1,0.5-0.2,0.7 c-0.1,0.2-0.3,0.3-0.5,0.3c-0.1,0-0.2,0-0.3-0.1s-0.3-0.1-0.5-0.3l-8.9-5.5c0,0-0.1,0-0.1-0.1c-0.7-0.4-1-0.9-1-1.4 c0-0.5,0.3-0.9,1-1.3c0.1,0,0.1-0.1,0.1-0.1l8.9-5.4c0.2-0.1,0.4-0.2,0.5-0.3c0.1-0.1,0.3-0.1,0.4-0.1c0.2,0,0.4,0.1,0.5,0.3 c0.1,0.2,0.2,0.4,0.2,0.7c0,0.3-0.1,0.5-0.2,0.7c-0.1,0.2-0.4,0.4-0.7,0.6L21.6,35.4z"/></defs><clipPath id="SVGID_10_"><use overflow="visible" xlink:href="#SVGID_9_"/></clipPath><g clip-path="url(#SVGID_10_)"><defs><rect id="SVGID_11_" width="1300" height="1363" x="-145" y="-1037"/></defs><clipPath id="SVGID_12_"><use overflow="visible" xlink:href="#SVGID_11_"/></clipPath><rect width="21.6" height="24.4" x="14" y="23.2" fill="#0B4A7B" clip-path="url(#SVGID_12_)"/></g></g><g><defs><path id="SVGID_13_" d="M39.3,45.1c-0.2,0.5-0.3,0.8-0.5,1c-0.1,0.2-0.3,0.3-0.5,0.3c-0.2,0-0.4-0.1-0.5-0.3 c-0.2-0.2-0.2-0.4-0.2-0.7c0-0.1,0-0.2,0-0.3c0-0.1,0.1-0.2,0.1-0.3l7-19.8c0.2-0.5,0.3-0.9,0.5-1c0.1-0.2,0.3-0.3,0.5-0.3 c0.2,0,0.4,0.1,0.6,0.3c0.2,0.2,0.2,0.4,0.2,0.7c0,0.1,0,0.2,0,0.3c0,0.1,0,0.2-0.1,0.3L39.3,45.1z"/></defs><clipPath id="SVGID_14_"><use overflow="visible" xlink:href="#SVGID_13_"/></clipPath><g clip-path="url(#SVGID_14_)"><defs><rect id="SVGID_15_" width="1300" height="1363" x="-145" y="-1037"/></defs><clipPath id="SVGID_16_"><use overflow="visible" xlink:href="#SVGID_15_"/></clipPath><rect width="18.9" height="32.8" x="32.6" y="18.6" fill="#0B4A7B" clip-path="url(#SVGID_16_)"/></g></g><g><defs><path id="SVGID_17_" d="M58.5,35.4l-8.2-4.9c-0.3-0.2-0.6-0.4-0.7-0.6c-0.1-0.2-0.2-0.4-0.2-0.7c0-0.3,0.1-0.5,0.2-0.7 c0.1-0.2,0.3-0.3,0.5-0.3c0.1,0,0.2,0,0.4,0.1c0.1,0.1,0.3,0.1,0.5,0.3l8.9,5.4c0,0,0.1,0,0.1,0.1c0.7,0.4,1,0.8,1,1.3 c0,0.5-0.3,0.9-1,1.3c-0.1,0-0.1,0.1-0.2,0.1l-8.9,5.5l0,0c-0.4,0.2-0.7,0.3-0.8,0.3c-0.2,0-0.4-0.1-0.5-0.3 c-0.1-0.2-0.2-0.4-0.2-0.7c0-0.3,0.1-0.5,0.2-0.7c0.1-0.2,0.4-0.4,0.7-0.6L58.5,35.4z"/></defs><clipPath id="SVGID_18_"><use overflow="visible" xlink:href="#SVGID_17_"/></clipPath><g clip-path="url(#SVGID_18_)"><defs><rect id="SVGID_19_" width="1300" height="1363" x="-145" y="-1037"/></defs><clipPath id="SVGID_20_"><use overflow="visible" xlink:href="#SVGID_19_"/></clipPath><rect width="21.6" height="24.4" x="44.4" y="23.2" fill="#0B4A7B" clip-path="url(#SVGID_20_)"/></g></g><g><defs><path id="SVGID_21_" d="M24.5,8.4h-19C5,8.4,4.7,8,4.7,7.6V5c0-0.5,0.4-0.8,0.8-0.8h19c0.5,0,0.8,0.4,0.8,0.8v2.5 C25.3,8,25,8.4,24.5,8.4"/></defs><clipPath id="SVGID_22_"><use overflow="visible" xlink:href="#SVGID_21_"/></clipPath><g clip-path="url(#SVGID_22_)"><defs><rect id="SVGID_23_" width="1300" height="1363" x="-145" y="-1037"/></defs><clipPath id="SVGID_24_"><use overflow="visible" xlink:href="#SVGID_23_"/></clipPath><rect width="30.7" height="14.2" x="-.3" y="-.8" fill="#FEFEFE" clip-path="url(#SVGID_24_)"/></g></g><g><path fill="none" stroke="#0B4A7B" stroke-miterlimit="10" stroke-width="2" d="M24.5,8.4h-19C5,8.4,4.7,8,4.7,7.6V5 c0-0.5,0.4-0.8,0.8-0.8h19c0.5,0,0.8,0.4,0.8,0.8v2.5C25.3,8,25,8.4,24.5,8.4z"/></g></g></g></switch></svg>