<svg xmlns="http://www.w3.org/2000/svg" xmlns:xlink="http://www.w3.org/1999/xlink" id="skyline" x="0" y="0" enable-background="new 0 0 204.4 108.4" version="1.0" viewBox="0 0 204.4 108.4" xml:space="preserve"><switch><g><path fill="#1C263B" fill-rule="evenodd" d="M0,104.8h5.8l0-9.4l0.7-0.6l0-0.6l0.4-2l2.5,0.1 l1.8-1.6l0-0.8l0.7-2.7l3.8,0.2l0.3,0.3l0.4-0.1l1.1-0.2l0-2c0.3-3.7,3-6.2,6.4-7.3l0-0.5c0.1-0.1,0.2-0.2,0.3-0.3v-0.2 c0,0-0.1-0.1-0.1-0.2c0-0.1,0.1-0.3,0.2-0.3c0.1,0,0.2,0,0.2,0.2c0,0.1,0,0.2-0.1,0.3v0.2c0.5-0.3,1.2-0.5,1.9-0.6v-0.2 c-0.1,0-0.2-0.1-0.2-0.2c0-0.1,0.2-0.3,0.4-0.3c0.2,0,0.5,0,0.5,0.2c0,0.1-0.1,0.2-0.3,0.3v0.2c0.8-0.1,1.6-0.1,2.4,0v-0.2 c-0.2-0.1-0.3-0.2-0.3-0.3c0-0.1,0.2-0.2,0.5-0.2c0.2,0,0.4,0.2,0.4,0.3c0,0.1-0.1,0.1-0.2,0.2v0.2c0.7,0.1,1.3,0.3,1.7,0.6v-0.2 C31.1,77.1,31,77,31,76.9c0-0.1,0.1-0.2,0.2-0.2c0.1,0,0.2,0.2,0.2,0.3c0,0.1,0,0.1-0.1,0.2v0.3c0.1,0.1,0.2,0.2,0.2,0.2l0,0.5 c3.5,1.2,6.1,3.5,6.3,7.4l0,1.8l1,0.2l0.3-0.5l4.5-0.3l0.9,3l0,0.7l2.7,2l2.5-0.1l0.5,1.8l0,10.7h1.3l0-10.8l-0.8-3l-3.1,0.1 l-1.1-0.8c0-1.5,0-1.1,0-3.5v-1.2l1.7-2V83v-2.7v-0.5l-0.2,0c0,0,0.2-0.2,0.2-0.2l0.3,0v-2h-0.1v-0.3l0-1.1l1.3-5.4 c0-0.2,0.2-0.8,0.2-0.8l-0.1,0l-0.1-0.1l-0.1-0.1l0-0.1l0-0.1l0-0.1l0-0.1l0.1-0.1l0.1-0.1l0.1,0c0,0,0.1,0,0.1,0l0.1,0 c0,0,0.1,0,0.1,0l0.1,0.1l0.1,0.1l0,0.1l0,0.1l0,0.1l0,0.1l-0.1,0.1L50.1,70l-0.1,0l0.1,0.6c0,0.2,1.3,5.7,1.3,5.7v0.3l0,0.7 l0,0.3c0,0,0,2,0,2l0.2,0c0,0,0.3,0.2,0.3,0.2h-0.2v0.5V83v0.6l0.7,0.8l0.6-4.8l0.5,0v-1.1l-0.3,0c0,0,1.3-3.1,1.3-3.1v-0.1 l-0.3,0l-0.1,0l0.3-0.5v-3.2l-0.2,0l-0.1,0l0.2-0.2v-1.8l-0.6,0l-0.1,0l0.7-0.4v-7v-0.3l0-5.4h0.9l1.5-8.6l0.6-0.1l-0.1,1l0.6-0.1 l0.6,0.2l0,0.2l0.9,0.1l0.1,0.2l0.2,0l0,0.1l0.4,0.1l0.5,0.3H61l0.2,0.5l0.5,0l0,0.2l0.1,0.1l1.2-0.2l0.2,1.3l0.3,0.1l0.2,0.5 l0.4,0.1l0.3,0l0.3,2.8l0.1,0l0.1,0l0.1,0l0.1,0l0.1,0.1l0.1,0.1l0.1,0.1l0.1,0.1l0.1,0.1l0.1,0.1l0.1,0.1l0.1,0.1l0.6,0.2h0.9 l0,5.4v0.3v7l0.7,0.4l-0.7,0v1.8l0.2,0.2h-0.2v3.2l0.3,0.5l-0.3,0v0.1l1.3,3.1c0,0-0.3,0-0.3,0v1.1l0.5,0c0,0,1.2,10.1,1.2,10.1 l2.4,0v15.1h1.2V90.9v-2.4v-1.4l-0.2,0v-0.4l-0.2,0v-0.4l-0.2-0.1v-2.3l-1.3-1.1v-0.5l-0.8-0.9l2.2,0v-5.4l21,0.3l0.2,0L94,75.9 l0,0l0.3-0.4l0.3,0.3c0,0,0-0.9,0-0.9l-0.3-0.6l-0.6,0.3v0.1v0.6l0.1,0.2l0,0.1l-0.1,0.1l-0.3,0l-0.1-0.6v-0.9v-0.1l0.2-0.1 c0,0,0-0.3,0-0.3l-0.1-0.2v-0.3v-0.1l0.1-0.2l0.1-0.1c0,0,0-0.2,0-0.2l-0.1-0.1l-0.2-0.1l-0.1-0.1v-0.6l-0.1-0.2v-0.1v-0.1l0-0.1 l0-0.1l-0.1-0.1c0,0,0-0.2,0-0.2l0.2,0l0.1-0.2l0.3,0l0.6,0.5l0.4,1.3l0.2,0.2l0.5,0l0.3,0.4v0.7l0.5,0.3l0.1,0.1l-0.1-0.3V73 v-0.1l0.3-0.2l0.1-0.4c0,0,0.1-1,0.1-1l0.1-0.5l0-0.1l0.6,0l0.1,0.3l0,0.1l0,0.1v0.1v0.8l0.2-0.2c0,0,0-0.7,0-0.7l-0.1-0.3V69 v-0.1l0.5,0l0.3-0.3c0,0,0-1.2,0-1.2l-0.1,0l-0.4-0.3l-0.1-0.5c0,0,0.1-0.4,0.1-0.4l0.3-0.3c0,0,0-0.2,0-0.2l-1-1.1v-0.2v-0.2 l1.1,0.8c0,0,0-0.3,0-0.3v-0.1l0.1-0.1l0.2,0.1v0.5l0.1,0l0.1-0.4l0.8-0.6l-0.1,0.5c0,0-0.2,0.6-0.2,0.6l-0.3,0.4l-0.2,0.1v0.1 v0.1l0.3,0.2l0.2,0.3v0.4l0,0l-0.2,0.2l-0.3,0.2v0.1v1l0.2-0.1l0.2,0l0.2,0.3l0,0.1L99.1,69v0.1v0.2l0.1,0.2l0.2-0.1 c0,0,0-0.3,0-0.3V69l0.2-0.1l0.2,0.1l0.1,0.4V70l0.2,1.2l0.3-0.8l0.5,0l0.1,0.4l0.1,0.1l0,0.1l-0.1,0.2c0,0,0.1,0.2,0.1,0.2v0.3 l0,0l-0.1,0.1V72v0.3l0.5,0.2l1.6,0l0.1-0.2l0-0.1v-0.5c0,0,0.3-0.7,0.3-0.7l0.4-0.3l0.4-0.1l0.1,0.2l0.3-0.1v0.2l-0.1,0.3 l-0.1,0.6v0.3l-0.1,0.1l-0.1,0.2l0,0.1l-0.1,0.4l0.1,0.2v0.6l-0.1,0.3l0.3,0.3l-0.3,1.4c0,0-0.2,0.1-0.2,0.1l-0.2-0.1v-0.4 c0,0,0.1-0.3,0.1-0.3l0-0.1l0.1-0.4l-0.2-0.2l-0.5,0l0,0.1l-0.1,0.2c0,0-0.2,0.3-0.2,0.3c0,0-0.1,0.6-0.1,0.6l0.1-0.1l0.2,0.1 l0.1,0.2v0.2l0,0l-0.2,0.1l-0.4,0l0.4,0l0.2,0l21.1,0.3v5.3l2.4,0l-0.8,0.9v0.5l-1.3,0.7v2.6l-0.3,0.1V87l-0.1,0v0.4l-0.1,0v3.8 l1.5,0v1.4l0.6,0v7.2l-0.8,0.9l-4.1,0v0.3l-0.3,0v3.7h1.2v-2.5l0.3,0V102l3.5,0l0.8-0.9l0.6,0v-9.6l-0.3,0l-0.3,0v-1.1l0.2,0 l0.7,0l1.2,0l1.5,0l0.8,0l0.3-0.4v-0.7c0.1,0,0.2,0,0.4,0V58.4l-0.3-0.2v-0.3c-0.1,0-0.1-1.2-0.1-1.2v-0.4l1.3,0v-0.8h1.1l0-0.2 l-0.1-0.1l-0.3-0.2l-0.1-0.1l-0.1,0.2l-0.2-0.1l-0.1-0.2l-0.1,0l-0.2-0.2l0-0.3l0.1-0.2l0.2-0.1l0.2-0.3l0.4-0.7l0-0.3l-0.1-0.3 l0.2-0.3l0.1-0.1l0-0.1l0-0.4l-0.1-0.1l-0.4-0.4l-0.5-0.3l-0.3-0.4l-0.4-0.3l-0.1-0.2l0,0l0-0.1c0,0,0.1-0.1,0.1-0.1l0.4,0l0.9,0 l0.3,0l0.1,0l0.1,0c0,0.1,0,0.2,0,0.2L134,50l0-2.5l-0.1-0.1l0-0.2l0.1-0.3l0.1-0.5l0.1,0l0,0.1l0,0.2l0.2,0.3l0.1,0.3l0,0.1l0,0 l-0.2,0.1v2.6l0.2,0.1c0,0,0.1-0.1,0.1-0.1l0-0.1c0,0-0.1-0.1-0.1-0.1l-0.1-0.1l0.1-0.1l0-0.5l0.1-0.3l-0.1-0.1l-0.1-0.1l-0.1-0.1 c0-0.1,0.2-0.1,0.2-0.1l0.1,0l0.3,0c0,0,0.1,0.1,0.1,0.1l-0.1,0.1c0,0,0,0.1,0,0.1l0.1,0.1l0.1,0.1l0,0.2l-0.1,0.4l0,0.2l0.1,0.2 l0.1,0l0.1-0.1l0-0.1l0.1-0.4l0.1,0l0.1,0.1l0.1,0.1l0,0l0.1,0l0.1,0l0.1-0.1l0.1-0.2l0.1-0.2l0.1-0.3l0.1-0.1l0-0.1l0.1,0 l0.1-0.2l-0.1-0.2l-0.1-0.4l0-0.1l0.1-0.1l0.1,0l0.1,0l0.1,0.1l0.1,0.1l0.1,0.3l-0.1,0.1l-0.1,0.1l-0.1,0.2l-0.1,0.3l-0.2,0.5 l-0.1,0.3l-0.1,0.1l0,0.1l0.2,0.2l0,0.2l0,0.1l0,0.1c0,0-0.2,0.1-0.2,0.1l-0.1,0.2l-0.1,0.1l-0.2,0l-0.2,0.1l-0.1,0l0,0.1l0,0.3 l0.1,0.8l0,0.3l0,0.3l0,0.2l0,0.1l-0.1,0l-0.1,0l0,0.1l0,0.6l0,0.3l0.1,0.4l0.2,0.4l0.1,0.1l0,0.1l0,0.2l0,0.1l0,0.1l-0.1,0 l-0.1,0.1l0.7,0v0.8l1.2,0c0,0,0,0.4,0,0.4v1.2h-0.1v0.3l-0.3,0.2v30.8l0.2,0c0,0,0.1,0,0.1,0v0.7l0.3,0.4h0.6c1.3,0,2.6,0,3.9,0 v1.1h-0.6v9.6l0.4,0l-0.1,0.6l-0.2,0.8l-0.1,0.6l-1.5,1.8h1.6l1-1.2l0.1-0.3l0.1-0.6l0.2-0.7l0.2-0.8l0.2-0.9l0.3-0.9l0.2-0.5 l0.3-1l0.4-1l0.4-1l0.5-1l0.6-1l0.7-0.9l0.8-0.9l0.9-0.8l1-0.7l1.1-0.6l1.3-0.5l1.4-0.4l1.5-0.2l1.4-0.1c0,0,1.5,0.1,1.5,0.1 l2,0.2l0.4,0.1l2,0.4l2.1,0.5l2.2,0.6l2.3,0.7l1.7,0.6l1.5-0.5l2.3-0.7l2.2-0.6l2.1-0.5l2-0.4l0.4,0l2-0.2l1.6-0.1l1.4,0.1 l1.5,0.2l1.4,0.4l1.3,0.5l1.1,0.6l1,0.7l0.9,0.8l0.8,0.9l0.7,0.9l0.6,1l0.5,1l0.4,1l0.4,1l0.3,1l0.2,0.5l0.3,0.9l0.2,0.9l0.2,0.8 l0.2,0.7l0.1,0.6l0.1,0.3l1.1,1.3h5.4v3.6h-9.7h-21.8h-0.1H148H0V104.8z M63.2,104.8h4.2V96l1.6,0l-0.3-1l-0.4-0.9l-0.5-0.7 l-0.6-0.5l-0.7-0.3l-0.3,0l-0.4,0.1l-0.7,0.3l-0.6,0.5l-0.5,0.7L63.5,95l-0.3,1V104.8z M76.9,104.8h5.5V87.4l-5.2,0v0.3l-0.1,0.1 c0,0,0,0.3,0,0.3l-0.1,0C76.9,88.1,76.9,104.8,76.9,104.8z M85.4,104.8h6V88.2l-0.1,0v-0.4l-0.1,0v-0.3l-5.4,0v0.3l-0.1,0v0.4 l-0.1,0C85.4,88.2,85.4,104.8,85.4,104.8z M93.8,104.8h8.4V88.2c0,0-0.2-0.1-0.2-0.1v-0.3l-0.1-0.1v-0.2L94,87.5v0.3l-0.1,0v0.4 l-0.1,0V104.8z M105.3,104.8h5.7V88.3c0,0-0.1-0.1-0.1-0.1v-0.3c0,0-0.1-0.1-0.1-0.1v-0.2l-5.4,0V104.8z M114.8,104.8h5.2V88.3 l-0.1,0l-0.1,0v-0.3l-0.1,0l-0.1-0.1v-0.2l-4.9,0V104.8z M143.6,104.8h1.4l0.5-0.8l2.9-1.4l1.7-0.8l1.9-0.9l0.9-0.4 c0.1,0.3,0.2,0.9,0.2,1.2c1.4-1.4,6.8-0.4,9.1,0l0.1,0l1.8,0.3l0.8,0.1l0.1,0l2.8,0.6l0.1,0l0.9,0.2l1.9,0.4l0.2,0l1.9,0.4 l0.9,0.2l0.2,0l2.5,0.6l0.2,0l0.1,0l0.6,0.1h0.1l-0.6-0.1c0,0,0.7,0.1,0.7,0.1h13.1l0.2-3.1l0-0.2l0-0.3c0,0,0-0.1,0-0.1l0-0.1 c0,0,0-0.1,0-0.1l0-0.2c0-0.1-0.1-0.2-0.1-0.2l-0.1-0.3l0-0.1c0-0.1-0.2-0.5-0.2-0.5l-0.1-0.1l0-0.1l0,0c0,0-0.3-0.4-0.3-0.4 l-0.1-0.1l-0.1-0.1l0,0c0,0-0.5-0.6-0.5-0.6l0,0l-0.2-0.2l-0.1-0.1l-0.3-0.3c0,0-0.1-0.1-0.1-0.1l-0.7-0.6l-0.1,0l-0.9-0.6l-0.1,0 l-1-0.6l-0.1,0l-0.1,0l-1.1-0.4l-0.3-0.1l-0.1,0l-1.9-0.4l-0.1,0l-0.1,0c-0.7-0.1-1.4-0.1-2.3-0.1l0.1,0l-0.1,0 c0,0-2.6,0.2-2.6,0.2l-0.2,0l-2.7,0.4l-0.2,0l-2.9,0.5l-0.2,0l-2.9,0.7l-0.2,0l-1.2,0.3l-1.6,0.4l-0.1,0l-2.2,0.6l-0.4,0.1l-0.1,0 c-1.6,0.3-3.2,0.5-4.8,0.8l1-0.5l2.3-1l2.3-1l2.2-0.9c0.2-0.1,0.3-0.1,0.5-0.2l2.1-0.8l2.4-0.8l2.3-0.8l2.3-0.7l2.2-0.6l2.1-0.5 l2-0.4l1.8-0.2l1.4-0.1l1.3,0.1l1.4,0.2l1.3,0.4l1.2,0.5l1.1,0.6l1,0.7l0.9,0.8l0.8,0.9l0.7,0.9l0.6,1l0.5,1l0.4,1l0.4,1l0.3,1 l0.3,0.9l0.2,0.9l0.2,0.8l0.2,0.7l0.1,0.6l0.5,0.8h0.9l-0.9-1l-0.2-1.1l-0.2-0.7l-0.2-0.8l-0.2-0.9l-0.3-0.9l-0.3-1l-0.4-1l-0.4-1 l-0.5-1l-0.6-0.9l-0.7-0.9l-0.8-0.8l-0.9-0.8l-1-0.7l-1.1-0.6l-1.2-0.5l-1.3-0.4l-1.5-0.2l-1.4-0.1l-1.5,0.1l-1.9,0.2l-2.1,0.4 l-2.2,0.5l-2.3,0.6l-2.3,0.7l-2.4,0.8l-2.4,0.9l-2.4,0.9l-2.4,1l-2.4,1l-2.3,1l-2.2,1l-2.1,1l-2,0.9l-1.9,0.9l-1.7,0.8l-1.5,0.7 l-1.3,0.6l-0.8,0.4L143.6,104.8z M146,104.8h2v-0.1l1.2-0.6l1.7-0.8l1-0.4l0,0.1l0.1,0.1v1.1h0.1v0.6h1.2v-2.2l-0.3-0.3L153,102 l-0.1-0.4l-0.1-0.6l-0.5,0.2l-1.9,0.9l-1.7,0.8l-2.1,1l-0.2,0.1L146,104.8z M193.7,104.8h0.8l-0.4-0.7L194,104l-0.3-0.1V104.8z M26.8,99.7h2.6v-3.9c0-0.7-0.6-1.3-1.3-1.3c-0.7,0-1.3,0.6-1.3,1.3V99.7z M35.3,81.5l-0.7-0.1c-0.1,0-0.1,0-0.1,0.1l0.1,0.4 c0,0.1,0.1,0.1,0.1,0.1l0.7,0.1c0.1,0,0.1,0,0.1-0.1l-0.1-0.4C35.5,81.6,35.4,81.6,35.3,81.5z M20.5,81.5c-0.1,0-0.1,0.1-0.1,0.1 l-0.1,0.4c0,0.1,0,0.1,0.1,0.1l0.7-0.1c0.1,0,0.1-0.1,0.1-0.1l0.1-0.4c0-0.1,0-0.1-0.1-0.1L20.5,81.5z M27.7,80.9 c-0.1,0-0.1,0.1-0.1,0.1v0.4c0,0.1,0.1,0.1,0.1,0.1h0.9c0.1,0,0.1-0.1,0.1-0.1V81c0-0.1-0.1-0.1-0.1-0.1H27.7z M35.5,85.7 c-0.3-0.1-0.6,0.1-0.8,0.3c0.1,0.2,0.4,0.5,0.8,0.5c0.3,0.1,0.6-0.1,0.8-0.3C36.2,86,35.9,85.8,35.5,85.7z M20.4,85.7 c-0.3,0.1-0.6,0.3-0.8,0.5c0.1,0.2,0.4,0.3,0.8,0.3c0.3-0.1,0.6-0.3,0.8-0.5C21.1,85.8,20.8,85.6,20.4,85.7z M28,85.1 c-0.6,0-1,0.2-1.2,0.5c0.2,0.3,0.7,0.5,1.2,0.5c0.6,0,1-0.2,1.2-0.5C29,85.3,28.5,85.1,28,85.1z M33.8,90.5l-1.7,0v2.1l1.7,0V90.5 z M38.3,90.9l-1.4-0.1v2.1l1.4,0.1V90.9z M41.2,91.6l-0.9-0.1v1.9l0.9,0.1V91.6z M22.2,90.5v2.1l1.7,0v-2.1L22.2,90.5z M17.7,90.9 V93l1.4-0.1v-2.1L17.7,90.9z M14.8,91.6v1.9l0.9-0.1v-1.9L14.8,91.6z M27,90.5v2.1h2v-2.1H27z M34.4,99.7v-3.7 c0-0.7-0.6-1.3-1.3-1.3c-0.7,0-1.3,0.6-1.3,1.3v3.7H34.4z M38.8,99.8V96c0-0.6-0.4-1-1-1.1c-0.5,0-1,0.4-1,0.9v3.8L38.8,99.8z M41.6,100v-4c0-0.3-0.2-0.6-0.5-0.6c-0.3,0-0.5,0.2-0.5,0.5v4L41.6,100z M21.8,99.7h2.6v-3.7c0-0.7-0.6-1.3-1.3-1.3 c-0.7,0-1.3,0.6-1.3,1.3V99.7z M17.4,99.8l2-0.1v-3.8c0-0.6-0.4-1-1-0.9c-0.5,0-1,0.5-1,1.1V99.8z M14.6,100l1.1-0.1v-4 c0-0.3-0.2-0.5-0.5-0.5c-0.3,0-0.5,0.3-0.5,0.6V100z M55.1,67l2.2,0v-1.5c0-0.5-0.2-1.1-0.7-1.3c0.3-1.4-1.2-1.4-0.9,0 c-0.5,0.3-0.7,0.8-0.7,1.3V67z M57.4,67.4l-2.2,0v1.9l2.2,0V67.4z M59.2,67.4v1.9h3.1v-1.9L59.2,67.4z M59.2,67l3.1,0v-1.5 c0-0.6-0.4-1.1-1-1.3c0.4-1.4-1.6-1.4-1.2,0c-0.6,0.2-0.9,0.7-1,1.3V67z M64.2,65.5V67l2.2,0v-1.5c0-0.5-0.2-1.1-0.7-1.3 c0.3-1.4-1.1-1.4-0.9,0C64.4,64.4,64.2,65,64.2,65.5z M66.4,67.4l-2.2,0v1.9l2.2,0V67.4z M55.6,74.3v-1.9l0-0.1l0-0.1L55.4,72 L55.4,72l-0.1,0l-0.1,0L55.1,72l-0.1,0.1l0,0.1l0,0.1v1.9L55.6,74.3z M56.1,72.4v1.9l0.5,0v-1.9l0-0.1l0-0.1L56.5,72L56.4,72 l-0.1,0l-0.1,0L56.2,72l-0.1,0.1l0,0.1L56.1,72.4z M57.1,72.4v1.9l0.5,0v-1.9l0-0.1l0-0.1L57.5,72L57.4,72l-0.1,0l-0.1,0L57.2,72 l-0.1,0.1l0,0.1L57.1,72.4z M58.7,72.4v1.9h1v-1.9l0-0.1l-0.1-0.1L59.6,72l-0.1-0.1l-0.1-0.1l-0.1,0c0,0-0.1,0-0.1,0L59,71.9 L58.9,72l-0.1,0.1l-0.1,0.1L58.7,72.4z M60.2,72.4v1.9h1v-1.9l0-0.1l-0.1-0.1L61.1,72L61,71.9l-0.1-0.1l-0.1,0c0,0-0.1,0-0.1,0 l-0.1,0.1L60.4,72l-0.1,0.1l-0.1,0.1L60.2,72.4z M61.7,72.4v1.9h1v-1.9l0-0.1l-0.1-0.1L62.5,72l-0.1-0.1l-0.1-0.1l-0.1,0 c0,0-0.1,0-0.1,0l-0.1,0.1L61.8,72l-0.1,0.1l-0.1,0.1L61.7,72.4z M63.8,72.4v1.9l0.5,0v-1.9l0-0.1l0-0.1L64.3,72l-0.1-0.1l-0.1,0 l-0.1,0L63.9,72l-0.1,0.1l0,0.1L63.8,72.4z M64.9,72.4v1.9l0.5,0v-1.9l0-0.1l0-0.1L65.3,72l-0.1-0.1l-0.1-0.1l-0.1,0L65,72 l-0.1,0.1l0,0.1L64.9,72.4z M65.9,72.4v1.9l0.5,0v-1.9l0-0.1l0-0.1L66.3,72l-0.1-0.1l-0.1-0.1l-0.1,0L66,72L66,72.1l0,0.1 L65.9,72.4z M65.3,76.8l-0.2-0.1l-0.1,0l-0.1,0l-0.2,0.1L64.6,77l-0.2,0.3l-0.1,0.3l0,0.3l0,0.3l0.1,0.3l0.2,0.3l0.2,0.2l0.2,0.1 l0.1,0l0.1,0l0.2-0.1l0.2-0.2c0,0,0.2-0.3,0.2-0.3l0.1-0.3l0-0.3c0,0,0-0.4,0-0.4l-0.1-0.3l-0.1-0.3C65.5,77,65.3,76.8,65.3,76.8z M57.2,78l0-0.3L57,77.3L56.9,77l-0.2-0.2l-0.2-0.1c0,0-0.1,0-0.1,0l-0.2,0.1L55.9,77c0,0-0.2,0.3-0.2,0.3l-0.1,0.3l0,0.3 c0,0,0,0.4,0,0.4l0.1,0.3l0.1,0.3c0,0,0.2,0.2,0.2,0.2l0.2,0.1c0,0,0.1,0,0.1,0l0.2-0.1l0.2-0.2l0.1-0.3l0.1-0.3L57.2,78z M49.1,78.9v-1.4l-0.5,0v1.4L49.1,78.9z M49.6,77.6v1.4h0.7v-1.4H49.6z M50.8,77.6v1.4l0.5,0v-1.4L50.8,77.6z M48.8,82.5v-1.6 c-0.3,0-0.3,1.6-0.3,1.6L48.8,82.5z M49.7,80.9v1.6h0.4v-1.6C49.8,80.8,49.8,80.8,49.7,80.9z M51,80.9v1.6l0.3,0v-1.6 C51.1,80.8,51,80.8,51,80.9z M53.4,96l0.7,0v0.9l4.2,0V96c0-2.7-2.7-5.1-4.9-2.1C53.4,95.4,53.4,95.3,53.4,96z M68.1,78.5 L68.1,78.5L68.1,78.5z M190.8,101.3L190.8,101.3L190.8,101.3z M185.7,95.5L185.7,95.5L185.7,95.5z M185.5,103.3L185.5,103.3 L185.5,103.3z M130.9,101v-9.6l-0.8,0v9.6L130.9,101z M138.6,91.5v9.6l0.7,0v-9.6L138.6,91.5z M135.5,91.5v9.6l1,0h0.2l0.4,0 c0,0,0.1,0,0.1,0v-9.6h-0.1c0,0-0.4,0-0.4,0h-0.6H135.5z M132.4,101L132.4,101L132.4,101z M132.4,91.5v9.6l0.2,0h0.3l0.5,0l0.7,0 v-9.6h-0.7h-0.5C132.8,91.5,132.4,91.5,132.4,91.5z M142.7,97.8L142.7,97.8l0.3-0.5l0.4-1.1l0.5-1.1l0.6-1.1l0.7-1.1l0.8-1l0.9-1 l1-0.9l1.1-0.8l1.3-0.7l1.4-0.6l1.5-0.4l1.7-0.3l1.6-0.1l0.1,0l1.5,0.1c0-0.2,0.1-0.3,0-0.4c-0.4-0.5-0.5-0.4-0.4-1.2 c0.1-0.7-0.6-0.6-0.7-0.3c0,0.1-0.1,0.3-0.1,0.4v-8.4l0.4,0v-2v-1.8l-0.5,0l-1.3,0V68l-1,0c0-1,0-2,0-3.1c0-2.4-1.1-3.6-3.3-4.9 v-0.2l0.1-0.4v-0.1l-0.4,0c0,0,0-0.4,0-0.4h-0.1c0,0-0.2,0-0.2,0c0,0-0.5,0-0.5,0c0,0-0.5,0-0.5,0c0,0-0.5,0-0.5,0 c0,0-0.3,0-0.3,0c0,0,0,0,0,0c0,0,0,0.4,0,0.4l-0.4,0c0,0,0,0.1,0,0.1l0.1,0.4c0,0.1,0,0.2,0,0.2c-2.2,1.3-3.3,2.4-3.3,4.9v3l-1,0 c0,0,0,5.5,0,5.5l-1.2,0l-0.6,0v1.8v2l0.2,0v8.1l0-0.1c-0.1-0.3-0.7-0.3-0.7,0.3c0.1,0.8-0.1,0.7-0.4,1.2 c-0.2,0.3,0.5,1.2-0.3,2.2c0,0,0,0.1-0.1,0.1l1.3,0h1.2v3.5h-0.6V97.8z M176.1,88.6c-1.3-1.3-3.1-2.1-4.7-2.4c0-0.3,0-0.7,0-1 c-0.7,0-1.3,0-2,0c-0.3-0.1-0.5-0.3-0.8-0.4c-0.1,0-0.7,0.4-0.8,0.4c-0.7,0-1.3,0-2,0c0,0.3,0,0.7,0,1c-1.6,0.4-2.8,0.9-3.9,1.8 l0.6,0.1l2.1,0.5l2.2,0.6l2.3,0.7l1.3,0.4l1.2-0.4l2.3-0.7L176.1,88.6z M145.9,82.7v3h1.1v-3H145.9z M151.7,82.7v3h1.1v-3H151.7z M147.1,70.7c0-0.4-0.3-0.7-0.6-0.7c-0.3,0-0.6,0.3-0.6,0.7c0,0.4,0.3,0.7,0.6,0.7C146.8,71.4,147.1,71.1,147.1,70.7z M152.9,70.7 c0-0.4-0.3-0.7-0.6-0.7c-0.3,0-0.6,0.3-0.6,0.7c0,0.4,0.3,0.7,0.6,0.7C152.6,71.4,152.9,71.1,152.9,70.7z M149.5,70 c-0.4,0-0.7,0.3-0.7,0.7c0,0.4,0.3,0.7,0.7,0.7c0.4,0,0.7-0.3,0.7-0.7C150.2,70.3,149.9,70,149.5,70z M145,70.7 c0-0.4-0.2-0.7-0.4-0.7s-0.4,0.3-0.4,0.7c0,0.4,0.2,0.7,0.4,0.7S145,71.1,145,70.7z M154.8,70.7c0-0.4-0.2-0.7-0.4-0.7 s-0.4,0.3-0.4,0.7c0,0.4,0.2,0.7,0.4,0.7S154.8,71.1,154.8,70.7z M143.3,77.2v9.5h0.4v-9.5H143.3z M155.3,77.2v9.5h0.4v-9.5H155.3 z M149.1,58.9c0,0,0.1,0,0.1,0l0.2,0h0.3l0.2,0l0.1,0c0,0,0-0.6,0-0.6c0,0-0.1,0-0.1,0l-0.2,0h-0.3l-0.2,0l-0.1,0 C149.1,58.3,149.1,58.9,149.1,58.9z M103.1,76.2v-0.1L103,76v-0.2l0.1-0.1l-0.1,0.1l0,0.4L103.1,76.2z M102.3,76.2 c0,0-0.1-0.1-0.1-0.1v-1.5l-0.1-0.2l-0.8,0l0,0.1l0,0.2l0.2,0.2l-0.1,0.1l-0.1,0.1v0.1v0.5l0.2,0l0.2,0.1l-0.1,0.1l0,0.1 c0,0,0,0.2,0,0.2l0.3,0l0.1,0l0.2,0L102.3,76.2z M100.5,76.2V76l-0.1-0.1v-0.5l-0.1-0.1l-0.1,0l0,0.1l-0.1,0.8 C100.1,76.2,100.4,76.2,100.5,76.2z M99.8,76.2v-0.9l-0.8,0l0,0.1l0,0.7C99,76.1,99.8,76.2,99.8,76.2z M98.7,76.1v-0.8l-0.9,0v0.1 v0.3l0.2-0.3l0.3,0.3v0.4C98.3,76.1,98.7,76.1,98.7,76.1z M97.6,76.1l0-0.5l-0.1-0.4l-0.1-0.1l-0.2,0l0,0.1c0,0,0.1,0,0.1,0v0.4 l0,0l-0.2,0.3l-0.1,0l0.1,0C97.3,76.1,97.6,76.1,97.6,76.1z M96.3,76.1v-1.2l-0.1-0.1l0,0l0.1-0.1c0,0,0-0.3,0-0.3l-0.6-0.4 l-0.2,0.5v0.1v1.1c0,0-0.1,0.3-0.1,0.3V76v0.1C95.3,76.1,96.3,76.1,96.3,76.1z M98.7,66.8l-0.2,0v0.1l0.1,0c0,0,0,0.1,0,0.1l0.1,0 c0,0,0.1-0.2,0.1-0.2L98.7,66.8z M98.1,67l0.1,0l0-0.1l0.1-0.2l-0.2,0l-0.1,0.1L98.1,67L98.1,67z M98.6,66.2l-0.1,0.3 c0,0,0.2,0,0.2,0c0,0,0.1-0.1,0.1-0.1L98.6,66.2z M98.2,66.2L98,66.4l0.1,0l0.1,0l0.1,0L98.2,66.2z M101.8,72.8l-0.5-0.2l0.1,0.2 l0.1,0.3l-0.1,1.1l0.7-0.5c0,0,0.2-0.5,0.2-0.5l0-0.1l0.2-0.1l0.1-0.1l-0.2-0.1L101.8,72.8z M102.1,74.2v-0.4l-0.5,0.4l0.1,0 C101.7,74.2,102,74.2,102.1,74.2z M102.9,75l0-0.5l-0.3,0v0.1v0.5l0,0l-0.1,0v0.1v0.2l0.1,0.1V76l0-0.1l0-0.1v-0.7v-0.1L102.9,75 L102.9,75z M97.1,75.3l-0.2,0v0.1v0.2l0.1-0.1C97.1,75.5,97.1,75.3,97.1,75.3z M98.3,69.1l-0.2,0.3l0.1,0l0.2,0c0,0,0-0.4,0-0.4 L98.3,69.1z M85,5.3L85,5.3c-0.1,0-0.1-3-0.1-3V1.6V0.1C84.7,0,84.6,0,84.6,0l-0.1,0c-0.2,0.1-0.2,1.6-0.2,1.6l0,0.7l0,2.9 c0,0-0.1,0-0.1,0l-0.1,0l-0.1,0C84,5.4,84,6,84,6c0.1-0.1,0.1-0.1,0.1-0.1c0,0,0,0.1,0,0.1c0,0,0,0.1,0,0.1l0,0.9v0.1v0.3l0,2.9 l0,1.5l0,1.5v1.5l0,2.2L84,17l-0.1,0l-0.1,0l-0.1,0c-0.1,0.1-0.1,0.6-0.1,0.6c0.1,0.1,0.1,0.1,0.1,0.1l0.1,0l0.1,0l0,1.3l0,1.5 l0,2.9l0,1.5l0,3.7l-0.2,0l-0.1,0l-0.1,0l-0.1,0l-0.1,0c0,0,0,0.6,0,0.6c0,0,0.1,0,0.1,0l0.1,0v0.3l0,1.5v0.4v0.1l-0.1,0l-0.1,0 l-0.1,0c0,0,0,0.6,0,0.6c0,0,0.1,0,0.1,0l0.1,0v0.1l0,0.2v0.2v0.2v0.3l-0.2,0l-0.4,0l-0.3,0l-0.3,0l-0.2,0l-0.1,0l0,0l0,0.4l0,0 l0.1,0l0.2,0l0.2,0v0.2l0,0.1c0,0.6,0,1.1,0,1.7c-0.3,0.2-0.3,1.1-0.1,1.3c0,0.2,0,0.4,0.1,0.6c0,0,0,0.8,0,0.9l-0.1,0 c0,0.1-0.1,0.1-0.1,0.1l0,0.1l0,0.1l0,0.1l0,0.1l0,0.1c0,0-0.2,0-0.2,0l-0.1,0c0,0,0,0.6,0,0.6l0,0l0.1,0l0.2,0c0,0,0,0.1,0,0.1 c-1.8,0.9-3,2.7-3,4.8c0,2.3,1.5,4.3,3.6,5l0,0.8l-0.1,0l-0.2,0l-0.2,0l-0.1,0c0,0,0,0.6,0,0.6c0,0,0.1,0,0.1,0l0.2,0l0.2,0h0.1 l0,0.3h-0.1l-0.2,0l-0.2,0l-0.1,0c0,0,0,0.6,0,0.6c0,0,0.1,0,0.1,0l0.2,0l0.2,0l0.1,0l-0.1,2l-0.3,10.1l-0.3,10.1l0,0.4l4.7,0.1 l0-0.5l-0.3-10.1l-0.3-10.1l-0.1-2l0.1,0l0.2,0l0.2,0l0.1,0c0,0,0-0.6,0-0.6c0,0-0.2,0-0.2,0l-0.2,0l-0.2,0 c-0.1,0-0.1-0.3-0.1-0.3h0.1l0.2,0l0.2,0h0.1c0,0,0-0.6,0-0.6c0,0-0.1,0-0.1,0l-0.2,0l-0.2,0l-0.1,0l0-0.8 c1.2-0.4,2.2-1.2,2.8-2.3c0.2-0.4,0.4-0.8,0.5-1.2c0.1-0.5,0.2-0.9,0.2-1.4c0-2.1-1.2-4-3.1-4.9l0.2,0l0.2,0l0.1,0l0,0l0-0.6 c0,0-0.1-0.1-0.1-0.1l-0.2,0l-0.1,0c0,0,0-0.1,0-0.1l0-0.1l0-0.1c0-0.6,0-1.2,0-1.7c0.2-0.2,0.3-1.3,0.1-1.5c0-0.1,0-0.2,0-0.3 c0,0-0.1,0-0.1,0V34v-0.1l0.2,0l0.2,0l0.1,0l0,0v-0.4l0,0l-0.1,0l-0.2,0l-0.3,0l-0.3,0l-0.4,0l-0.2,0v-0.3v-0.2v-0.2v-0.2v-0.1 l0.1,0l0.1,0c0,0,0-0.6,0-0.6c0,0-0.1,0-0.1,0l-0.1,0l-0.1,0v-0.1v-0.4v-1.5v-0.3l0.1,0l0.1,0c0,0,0-0.6,0-0.6c0,0-0.1,0-0.1,0 l-0.1,0l-0.1,0l-0.1,0l-0.2,0c0,0,0-3.7,0-3.7v-1.5l0-2.9l0-1.5v-1.3l0.1,0l0.1,0l0.1,0c0.1-0.1,0.1-0.6,0.1-0.6 c-0.1-0.1-0.1-0.1-0.1-0.1l-0.1,0l-0.1,0L85,17c0,0,0-2.2,0-2.2v-1.5v-1.5v-1.5V7.4V7.1v-1V6V5.9c0,0,0.1,0,0.1,0 c0.1,0.1,0.1-0.5,0.1-0.5C85.1,5.3,85.1,5.3,85,5.3L85,5.3z M84.2,17L84.2,17L84.2,17z M160.6,87.3c1.1-1,2.3-1.6,3.9-2.1 c0,0,0-0.1,0-0.1V84l1.2,0c0.6,0,1.1,0,1.7,0c0.4-0.2,0.8-0.4,1.2-0.4h0.3l0.3,0.1c0.2,0.1,0.4,0.2,0.5,0.3c0.6,0,1.2,0,1.7,0 l1.2,0v1.2c0.1,0.1,0.2,0.1,0.3,0.1l0-12.8l-1.7,0l0-0.7l-1.2,0l0-1.7l-2.5,0l0-2.7l-0.9,0l0-3.6c-0.2,0-0.3,3.5-0.3,3.5l-0.9,0 l-0.1,2.7l-2.5,0l0,1.7l-1.3,0l0,0.7l-0.8,0L160.6,87.3z M177.4,88.2l0.8-0.2l2-0.4l0.4-0.1l2-0.2l1.7-0.1l1.6,0.1l1.7,0.3 l1.2,0.3l-0.1-8.8l-1.5,0l-0.1-8.6c0,0,0-0.2,0-0.2l-0.4,0l0-0.1l-0.1,0l-0.1,0.1c0,0-0.1,0-0.1,0l-0.1,0.1l0-0.2l-0.1,0l-0.1,0.1 c0,0-0.1,0-0.1,0l-0.1,0.1l0-0.2l-0.1,0l-0.1,0.1c0,0-0.1,0-0.1,0l-0.1,0.1l0-0.2l-0.1,0l-0.1,0.1c0,0-0.1,0-0.1,0l-0.1,0.1l0-0.2 l-0.1,0l-0.1,0.1c0,0-0.1,0-0.1,0l-0.1,0.1c0,0,0-0.3,0-0.3l-0.1,0l-0.1,0.1c0,0-0.1,0-0.1,0l-0.1,0.1l0-0.3l-0.1,0l-0.1,0.1 c0,0-0.1,0-0.1,0l-0.1,0.1l0-0.3l-0.1,0l-0.1,0.1c0,0-0.1,0-0.1,0l-0.1,0.1c0,0,0-0.3,0-0.3l-0.1,0l-0.1,0.1c0,0-0.1,0-0.1,0 l-0.1,0.1c0,0,0-0.3,0-0.3l-0.1,0l-0.1,0.1l0,0.2l-0.1,0l0-1.8c0,0,0-0.1,0-0.1l-0.4,0l0-0.2l-0.1,0l-0.1,0.1c0,0-0.1,0-0.1,0 l-0.1,0.1c0,0,0-0.3,0-0.3l-0.1,0l-0.1,0.1c0,0-0.1,0-0.1,0l-0.1,0.1c0,0,0-0.3,0-0.3l-0.1,0l-0.1,0.1c0,0-0.1,0-0.1,0l-0.1,0.1 c0,0,0-0.3,0-0.3l-0.1,0l-0.1,0.1c0,0-0.1,0-0.1,0l-0.1,0.1c0,0,0-0.3,0-0.3l-0.1,0l-0.1,0.1c0,0,0,0.2,0,0.2l0-0.2l-0.1,0 l-0.1,0.1c0,0,0-0.3,0-0.3l-0.1,0l-0.1,0.1l0,0.2l0.1,0l-0.1,0l0-0.2l-0.1,0l-0.1,0.1c0,0,0-0.3,0-0.3l-0.1,0l-0.1,0.1l0,0.2 c0,0,0-0.2,0-0.2l-0.1,0l-0.1,0.1c0,0,0-0.3,0-0.3l-0.1,0l-0.1,0.1l0,0.2c0,0,0-0.2,0-0.2l-0.1,0l-0.1,0.1c0,0,0-0.3,0-0.3l-0.1,0 l-0.1,0.1l0,0.2c0,0,0-0.2,0-0.2l-0.1,0l-0.1,0.1c0,0,0-0.3,0-0.3l-0.1,0l-0.1,0.1l0,0.2c0,0,0-0.2,0-0.2l-0.1,0l-0.1,0.1 c0,0,0-0.3,0-0.3l-0.1,0l-0.1,0.1l0,0.2c0,0,0-0.2,0-0.2l-0.1,0l-0.1,0.1c0,0,0-0.3,0-0.3l-0.1,0l-0.1,0.1l0,0.2c0,0,0-0.2,0-0.2 l-0.1,0l-0.1,0.1c0,0,0-0.3,0-0.3l-0.1,0l-0.1,0.1l0,0.2c0,0,0-0.2,0-0.2l-0.1,0l-0.1,0.1c0,0,0-0.3,0-0.3l-0.1,0l-0.1,0.1l0,0.2 c0,0,0-0.2,0-0.2l-0.1,0l-0.1,0.1c0,0,0-0.3,0-0.3l-0.1,0l-0.1,0.1l0,0.2c0,0,0-0.2,0-0.2l-0.1,0l-0.1,0.1c0,0,0-0.3,0-0.3l-0.1,0 l-0.1,0.1l0,0.2l-0.1,0l0-0.2l0,0.2l0-0.1c0,0-0.4,0-0.4,0l0,0.2c0,0,0,1.8,0,1.8l0.1,17.4C177.1,87.8,177.2,88,177.4,88.2z" clip-rule="evenodd" opacity=".1"/></g></switch></svg>