<svg xmlns="http://www.w3.org/2000/svg" xmlns:xlink="http://www.w3.org/1999/xlink" id="Layer_1" x="0" y="0" enable-background="new 0 0 21.8 35.5" version="1.0" viewBox="0 0 21.8 35.5" xml:space="preserve"><switch><g><g><g><path fill="none" stroke="#ED1944" stroke-linecap="round" stroke-linejoin="round" stroke-miterlimit="22.926" stroke-width="1.44" d="M21,4.8L20.8,32c0,1.5-1.2,2.7-2.6,2.7H3.3c-1.4,0-2.6-1.2-2.6-2.7V3.4c0-1.5,1.2-2.7,2.6-2.7h14.9c1.1,0,2.9,0.4,2.8,2.6 L21,4.8L21,4.8z"/><line x1="9.1" x2="12.4" y1="31.2" y2="31.2" fill="none" stroke="#ED1944" stroke-linecap="round" stroke-linejoin="round" stroke-miterlimit="22.926" stroke-width="1.44"/><line x1="1.1" x2="20.3" y1="27.6" y2="27.6" fill="none" stroke="#ED1944" stroke-linecap="round" stroke-linejoin="round" stroke-miterlimit="22.926" stroke-width="1.44"/><line x1="1.5" x2="20.6" y1="5.1" y2="5.1" fill="none" stroke="#ED1944" stroke-linecap="round" stroke-linejoin="round" stroke-miterlimit="22.926" stroke-width="1.44"/></g><polygon fill="none" stroke="#ED1944" stroke-linecap="round" stroke-linejoin="round" stroke-miterlimit="22.926" stroke-width="1.44" points="11 9 13.3 13.2 18 14.1 14.7 17.5 15.4 22.3 11 20.2 6.7 22.3 7.4 17.5 4 14.1 8.8 13.2 11 9"/></g></g></switch></svg>