<svg xmlns="http://www.w3.org/2000/svg" xmlns:xlink="http://www.w3.org/1999/xlink" id="Layer_1" x="0" y="0" enable-background="new 0 0 35.5 31.4" version="1.0" viewBox="0 0 35.5 31.4" xml:space="preserve"><switch><g><g><polyline fill="none" stroke="#ED1944" stroke-linecap="round" stroke-linejoin="round" stroke-miterlimit="22.926" stroke-width="1.44" points="12.7 14.9 7.2 19.4 12.7 23.8"/><polyline fill="none" stroke="#ED1944" stroke-linecap="round" stroke-linejoin="round" stroke-miterlimit="22.926" stroke-width="1.44" points="22.7 14.9 28.2 19.4 22.7 23.8"/><line x1="19.5" x2="16.6" y1="12.7" y2="26" fill="none" stroke="#ED1944" stroke-linecap="round" stroke-linejoin="round" stroke-miterlimit="22.926" stroke-width="1.44"/><path fill="none" stroke="#ED1944" stroke-linecap="round" stroke-linejoin="round" stroke-miterlimit="22.926" stroke-width="1.44" d="M34.7,0.7h-34v30c19.1,0,24.3,0,34,0V0.7L34.7,0.7z"/><line x1="34.7" x2=".7" y1="7.5" y2="7.5" fill="none" stroke="#ED1944" stroke-linecap="round" stroke-linejoin="round" stroke-miterlimit="22.926" stroke-width="1.44"/><path fill="none" stroke="#ED1944" stroke-linecap="round" stroke-linejoin="round" stroke-miterlimit="22.926" stroke-width="1.44" d="M30.4,3.7c-0.4,0-0.7,0.3-0.7,0.7c0,0.4,0.3,0.7,0.7,0.7c0.4,0,0.7-0.3,0.7-0.7C31.2,4,30.9,3.7,30.4,3.7L30.4,3.7z"/><path fill="none" stroke="#ED1944" stroke-linecap="round" stroke-linejoin="round" stroke-miterlimit="22.926" stroke-width="1.44" d="M25.6,3.7c-0.4,0-0.7,0.3-0.7,0.7c0,0.4,0.3,0.7,0.7,0.7c0.4,0,0.7-0.3,0.7-0.7C26.3,4,26,3.7,25.6,3.7L25.6,3.7z"/></g></g></switch></svg>