<svg xmlns="http://www.w3.org/2000/svg" xmlns:xlink="http://www.w3.org/1999/xlink" width="609" height="412" x="0" y="0" enable-background="new 0 0 609 412" version="1.1" viewBox="0 0 609 412" xml:space="preserve"><g id="Layer_3"><g><g><rect width="198" height="37" x="106" y="236" fill="#30739C"/><text fill="#FFF" font-family="'OpenSans'" font-size="14" transform="matrix(1 0 0 1 170.5537 258.6016)">KEYNOTES</text></g><g><rect width="396" height="37" x="106" y="279" fill="#30739C"/><text fill="#FFF" font-family="'OpenSans'" font-size="14" transform="matrix(1 0 0 1 267.7217 301.6016)">EXPO HALL</text></g><g><rect width="396" height="37" x="106" y="322" fill="#30739C"/><text fill="#FFF" font-family="'OpenSans'" font-size="14" transform="matrix(1 0 0 1 188.6846 344.6016)">BUSINESS SESSIONS / WORKSHOPS</text></g><g><rect width="397" height="37" x="203" y="365" fill="#30739C"/><text fill="#FFF" font-family="'OpenSans'" font-size="14" transform="matrix(1 0 0 1 347.1167 387.6016)">DESIGN SUMMIT</text></g><g><rect width="90.5" height="166" x="9" y="236" fill="#30739C"/><text transform="matrix(0 -1 1 0 49.7988 363.2422)"><tspan x="0" y="0" fill="#FFF" font-family="'OpenSans-Bold'" font-size="14">FULL ACCESS</tspan><tspan x="27.307" y="16.8" fill="#FFF" font-family="'OpenSans-Bold'" font-size="14">PASS</tspan></text></g><line x1="203" x2="203" y1="10" y2="31" fill="#294F68"/><line x1="302" x2="302" y1="10" y2="31" fill="#294F68"/><line x1="402" x2="402" y1="10" y2="31" fill="#294F68"/><line x1="502" x2="502" y1="10" y2="31" fill="#294F68"/><g><rect width="198" height="37" x="106" y="51" fill="#F15D22"/><text fill="#FFF" font-family="'OpenSans'" font-size="14" transform="matrix(1 0 0 1 170.5537 73.6016)">KEYNOTES</text></g><g><rect width="396" height="37" x="106" y="94" fill="#F15D22"/><text fill="#FFF" font-family="'OpenSans'" font-size="14" transform="matrix(1 0 0 1 267.7217 116.6016)">EXPO HALL</text></g><g><g><g><polyline fill="none" stroke="#DEDDDD" stroke-miterlimit="10" stroke-width="2" points="502 172 502 174 500 174"/><line x1="496.04" x2="109.98" y1="174" y2="174" fill="none" stroke="#DEDDDD" stroke-dasharray="3.96 3.96" stroke-miterlimit="10" stroke-width="2"/><polyline fill="none" stroke="#DEDDDD" stroke-miterlimit="10" stroke-width="2" points="108 174 106 174 106 172"/><line x1="106" x2="106" y1="168.333" y2="140.833" fill="none" stroke="#DEDDDD" stroke-dasharray="3.667 3.667" stroke-miterlimit="10" stroke-width="2"/><polyline fill="none" stroke="#DEDDDD" stroke-miterlimit="10" stroke-width="2" points="106 139 106 137 108 137"/><line x1="111.959" x2="498.021" y1="137" y2="137" fill="none" stroke="#DEDDDD" stroke-dasharray="3.96 3.96" stroke-miterlimit="10" stroke-width="2"/><polyline fill="none" stroke="#DEDDDD" stroke-miterlimit="10" stroke-width="2" points="500 137 502 137 502 139"/><line x1="502" x2="502" y1="142.667" y2="170.167" fill="none" stroke="#DEDDDD" stroke-dasharray="3.667 3.667" stroke-miterlimit="10" stroke-width="2"/></g></g><g><text fill="#DEDDDD" font-family="'OpenSans'" font-size="14" transform="matrix(1 0 0 1 253.1064 159.6016)">NOT INCLUDED</text></g></g><g><g><g><polyline fill="none" stroke="#DEDDDD" stroke-miterlimit="10" stroke-width="2" points="600 215 600 217 598 217"/><line x1="594.03" x2="206.985" y1="217" y2="217" fill="none" stroke="#DEDDDD" stroke-dasharray="3.97 3.97" stroke-miterlimit="10" stroke-width="2"/><polyline fill="none" stroke="#DEDDDD" stroke-miterlimit="10" stroke-width="2" points="205 217 203 217 203 215"/><line x1="203" x2="203" y1="211.333" y2="183.833" fill="none" stroke="#DEDDDD" stroke-dasharray="3.667 3.667" stroke-miterlimit="10" stroke-width="2"/><polyline fill="none" stroke="#DEDDDD" stroke-miterlimit="10" stroke-width="2" points="203 182 203 180 205 180"/><line x1="208.97" x2="596.016" y1="180" y2="180" fill="none" stroke="#DEDDDD" stroke-dasharray="3.97 3.97" stroke-miterlimit="10" stroke-width="2"/><polyline fill="none" stroke="#DEDDDD" stroke-miterlimit="10" stroke-width="2" points="598 180 600 180 600 182"/><line x1="600" x2="600" y1="185.667" y2="213.167" fill="none" stroke="#DEDDDD" stroke-dasharray="3.667 3.667" stroke-miterlimit="10" stroke-width="2"/></g></g><text fill="#DEDDDD" font-family="'OpenSans'" font-size="14" transform="matrix(1 0 0 1 350.6064 202.6016)">NOT INCLUDED</text></g><text fill="#2A4F68" font-family="'OpenSans'" font-size="14" transform="matrix(1 0 0 1 142.1558 25)">Mon</text><text fill="#2A4F68" font-family="'OpenSans'" font-size="14" transform="matrix(1 0 0 1 241.9038 25)">Tue</text><text fill="#2A4F68" font-family="'OpenSans'" font-size="14" transform="matrix(1 0 0 1 339.3027 25)">Wed</text><text fill="#2A4F68" font-family="'OpenSans'" font-size="14" transform="matrix(1 0 0 1 441.5352 25)">Thu</text><text fill="#2A4F68" font-family="'OpenSans'" font-size="14" transform="matrix(1 0 0 1 539.7598 25)">Fri</text><g><rect width="90.5" height="166" x="9" y="51" fill="#F15D22"/><text transform="matrix(0 -1 1 0 41.3984 171.9873)"><tspan x="0" y="0" fill="#FFF" font-family="'OpenSans-Bold'" font-size="14">KEYNOTE +</tspan><tspan x="-12.247" y="16.8" fill="#FFF" font-family="'OpenSans-Bold'" font-size="14">MARKETPLACE</tspan><tspan x="21.051" y="33.6" fill="#FFF" font-family="'OpenSans-Bold'" font-size="14">PASS</tspan></text></g></g></g></svg>