<svg xmlns="http://www.w3.org/2000/svg" xmlns:xlink="http://www.w3.org/1999/xlink" width="373.333" height="300.667" x="0" y="0" enable-background="new 0 0 373.333 300.667" version="1.1" viewBox="0 0 373.333 300.667" xml:space="preserve"><g id="Layer_3"><g><rect width="105.082" height="27.045" x="75.236" y="175.511" fill="#30739C"/><text fill="#FFF" font-family="'OpenSans'" font-size="10.233" transform="matrix(1 0 0 1 102.5986 192.0317)">KEYNOTES</text></g><g><rect width="231.486" height="27.045" x="75.236" y="206.943" fill="#30739C"/><text fill="#FFF" font-family="'OpenSans'" font-size="10.233" transform="matrix(1 0 0 1 164.4614 223.4634)">EXPO HALL</text></g><g><rect width="231.486" height="27.046" x="75.236" y="238.374" fill="#30739C"/><text fill="#FFF" font-family="'OpenSans'" font-size="8" transform="matrix(1 0 0 1 125.085 254.894)">BUSINESS SESSIONS / WORKSHOPS</text></g><g><rect width="247.582" height="27.046" x="117.117" y="269.805" fill="#30739C"/><text fill="#FFF" font-family="'OpenSans'" font-size="10.233" transform="matrix(1 0 0 1 201.1553 286.3257)">DESIGN SUMMIT</text></g><g><rect width="66.152" height="121.34" x="4.333" y="175.511" fill="#30739C"/><text transform="matrix(0 -1 1 0 34.1553 274.1021)"><tspan x="0" y="0" fill="#FFF" font-family="'OpenSans-Bold'" font-size="12">FULL ACCESS</tspan><tspan x="23.405" y="14.4" fill="#FFF" font-family="'OpenSans-Bold'" font-size="12">PASS</tspan></text></g><line x1="117.117" x2="117.117" y1="10.313" y2="25.663" fill="#294F68"/><line x1="180.318" x2="180.318" y1="10.313" y2="25.663" fill="#294F68"/><line x1="243.521" x2="243.521" y1="10.313" y2="25.663" fill="#294F68"/><line x1="306.723" x2="306.723" y1="10.313" y2="25.663" fill="#294F68"/><g><rect width="105.082" height="27.045" x="75.236" y="40.283" fill="#F15D22"/><text fill="#FFF" font-family="'OpenSans'" font-size="10.233" transform="matrix(1 0 0 1 102.5986 56.8032)">KEYNOTES</text></g><g><rect width="231.486" height="27.046" x="75.236" y="71.714" fill="#F15D22"/><text fill="#FFF" font-family="'OpenSans'" font-size="10.233" transform="matrix(1 0 0 1 164.4614 88.2349)">EXPO HALL</text></g><g><g><g><polyline fill="none" stroke="#888" stroke-miterlimit="10" stroke-width="2" points="306.723 128.191 306.723 130.191 304.723 130.191"/><line x1="300.731" x2="79.232" y1="130.191" y2="130.191" fill="none" stroke="#888" stroke-dasharray="3.991 3.991" stroke-miterlimit="10" stroke-width="2"/><polyline fill="none" stroke="#888" stroke-miterlimit="10" stroke-width="2" points="77.236 130.191 75.236 130.191 75.236 128.191"/><line x1="75.236" x2="75.236" y1="123.582" y2="107.45" fill="none" stroke="#888" stroke-dasharray="4.609 4.609" stroke-miterlimit="10" stroke-width="2"/><polyline fill="none" stroke="#888" stroke-miterlimit="10" stroke-width="2" points="75.236 105.146 75.236 103.146 77.236 103.146"/><line x1="81.228" x2="302.728" y1="103.146" y2="103.146" fill="none" stroke="#888" stroke-dasharray="3.991 3.991" stroke-miterlimit="10" stroke-width="2"/><polyline fill="none" stroke="#888" stroke-miterlimit="10" stroke-width="2" points="304.723 103.146 306.723 103.146 306.723 105.146"/><line x1="306.723" x2="306.723" y1="109.754" y2="125.886" fill="none" stroke="#888" stroke-dasharray="4.609 4.609" stroke-miterlimit="10" stroke-width="2"/></g></g><g><text fill="#888" font-family="'OpenSans'" font-size="10.233" transform="matrix(1 0 0 1 153.7783 119.6665)">NOT INCLUDED</text></g></g><g><g><g><polyline fill="none" stroke="#888" stroke-miterlimit="10" stroke-width="2" points="364.698 159.623 364.698 161.623 362.698 161.623"/><line x1="358.705" x2="121.113" y1="161.623" y2="161.623" fill="none" stroke="#888" stroke-dasharray="3.993 3.993" stroke-miterlimit="10" stroke-width="2"/><polyline fill="none" stroke="#888" stroke-miterlimit="10" stroke-width="2" points="119.117 161.623 117.117 161.623 117.117 159.623"/><line x1="117.117" x2="117.117" y1="155.013" y2="138.881" fill="none" stroke="#888" stroke-dasharray="4.609 4.609" stroke-miterlimit="10" stroke-width="2"/><polyline fill="none" stroke="#888" stroke-miterlimit="10" stroke-width="2" points="117.117 136.577 117.117 134.577 119.117 134.577"/><line x1="123.11" x2="360.702" y1="134.577" y2="134.577" fill="none" stroke="#888" stroke-dasharray="3.993 3.993" stroke-miterlimit="10" stroke-width="2"/><polyline fill="none" stroke="#888" stroke-miterlimit="10" stroke-width="2" points="362.698 134.577 364.698 134.577 364.698 136.577"/><line x1="364.698" x2="364.698" y1="141.186" y2="157.318" fill="none" stroke="#888" stroke-dasharray="4.609 4.609" stroke-miterlimit="10" stroke-width="2"/></g></g><text fill="#888" font-family="'OpenSans'" font-size="10.233" transform="matrix(1 0 0 1 203.7061 151.0972)">NOT INCLUDED</text></g><text fill="#2A4F68" font-family="'OpenSans'" font-size="13" transform="matrix(1 0 0 1 71.7314 21.2769)">Mon</text><text fill="#2A4F68" font-family="'OpenSans'" font-size="13" transform="matrix(1 0 0 1 137.4854 21.2769)">Tue</text><text fill="#2A4F68" font-family="'OpenSans'" font-size="13" transform="matrix(1 0 0 1 198.272 21.2769)">Wed</text><text fill="#2A4F68" font-family="'OpenSans'" font-size="13" transform="matrix(1 0 0 1 263.5459 21.2769)">Thu</text><text fill="#2A4F68" font-family="'OpenSans'" font-size="13" transform="matrix(1 0 0 1 330.6709 21.2769)">Fri</text><g><rect width="66.152" height="121.34" x="4.333" y="40.283" fill="#F15D22"/><text transform="matrix(0 -1 1 0 28.0151 133.5122)"><tspan x="0" y="0" fill="#FFF" font-family="'OpenSans-Bold'" font-size="12">KEYNOTE +</tspan><tspan x="-10.497" y="14.4" fill="#FFF" font-family="'OpenSans-Bold'" font-size="12">MARKETPLACE</tspan><tspan x="18.044" y="28.8" fill="#FFF" font-family="'OpenSans-Bold'" font-size="12">PASS</tspan></text></g></g></svg>