<svg xmlns="http://www.w3.org/2000/svg" xmlns:xlink="http://www.w3.org/1999/xlink" id="Layer_1" x="0" y="0" enable-background="new 0 0 36.6 32.2" version="1.0" viewBox="0 0 36.6 32.2" xml:space="preserve"><switch><g><g><path fill="none" stroke="#FFF" stroke-linecap="round" stroke-linejoin="round" stroke-miterlimit="22.926" stroke-width="1.44" d="M2.5,0.7h31.5c1,0,1.8,0.8,1.8,1.8v21.7c0,1-0.8,1.8-1.8,1.8H2.5c-1,0-1.8-0.8-1.8-1.8V2.5C0.7,1.5,1.5,0.7,2.5,0.7L2.5,0.7z M3.3,3.2h30v20.3c-16.7,0-21.5,0-30,0V3.2L3.3,3.2z"/><path fill="none" stroke="#FFF" stroke-linecap="round" stroke-linejoin="round" stroke-miterlimit="22.926" stroke-width="1.44" d="M21.5,26.3v4.9 M15.1,31.2v-4.9 M9.2,31.5h18.2"/><g><polyline fill="none" stroke="#FFF" stroke-linecap="round" stroke-linejoin="round" stroke-miterlimit="22.926" stroke-width="1.44" points="10.2 20.1 15.9 15.5 19.8 16.7 25.7 6.7 22 7.5"/><line x1="26" x2="26.6" y1="6.7" y2="10.6" fill="none" stroke="#FFF" stroke-linecap="round" stroke-linejoin="round" stroke-miterlimit="22.926" stroke-width="1.44"/></g></g></g></switch></svg>