<svg xmlns="http://www.w3.org/2000/svg" xmlns:xlink="http://www.w3.org/1999/xlink" id="Layer_1" x="0" y="0" enable-background="new 0 0 35.7 31.8" version="1.0" viewBox="0 0 35.7 31.8" xml:space="preserve"><switch><g><g><path fill="none" stroke="#ED1944" stroke-linecap="round" stroke-linejoin="round" stroke-miterlimit="22.926" stroke-width="1.44" d="M33.3,17v12.9c0,0.6-0.5,1.1-1.1,1.1H3.6c-0.6,0-1.1-0.5-1.1-1.1V17.2"/><path fill="none" stroke="#ED1944" stroke-linecap="round" stroke-linejoin="round" stroke-miterlimit="22.926" stroke-width="1.44" d="M12.7,5.9V2.6c0-1,0.8-1.9,1.9-1.9h6.6c1,0,1.9,0.9,1.9,1.9v3.3"/><path fill="none" stroke="#ED1944" stroke-linecap="round" stroke-linejoin="round" stroke-miterlimit="22.926" stroke-width="1.44" d="M14.7,19.6c-4.8-0.2-9.7-1.2-14-3.3l0-9.1C0.7,6.5,1.3,6,1.9,6h32C34.5,6,35,6.5,35,7.1l0,8.9c-4.3,2.3-9.3,3.3-14.2,3.6"/><path fill="none" stroke="#ED1944" stroke-linecap="round" stroke-linejoin="round" stroke-miterlimit="22.926" stroke-width="1.44" d="M15.8,17.9h4.1c0.4,0,0.6,0.3,0.6,0.6v2.8c0,0.4-0.3,0.6-0.6,0.6h-4.1c-0.4,0-0.6-0.3-0.6-0.6v-2.8 C15.2,18.2,15.5,17.9,15.8,17.9L15.8,17.9z"/></g></g></switch></svg>