<svg xmlns="http://www.w3.org/2000/svg" xmlns:xlink="http://www.w3.org/1999/xlink" id="Layer_1" data-name="Layer 1" viewBox="0 0 114 91"><defs><style>.cls-1,.cls-5{fill:none}.cls-2{fill:#2cc5f4;stroke-width:2px}.cls-2,.cls-5{stroke:#08497c;stroke-miterlimit:10}.cls-3{fill:#08497c}.cls-4{clip-path:url(#clip-path)}.cls-6{clip-path:url(#clip-path-2)}</style><clipPath id="clip-path"><rect id="SVGID" width="57.32" height="15.97" x="32.12" y="49.55" class="cls-1"/></clipPath><clipPath id="clip-path-2"><rect id="SVGID-2" width="57.32" height="15.97" x="32.12" y="24.42" class="cls-1" data-name="SVGID"/></clipPath></defs><title>icon-series</title><rect width="84.6" height="25.67" x="14.7" y="45.23" class="cls-2"/><circle cx="26.26" cy="54.26" r="2.45" class="cls-3"/><g class="cls-4"><line x1="-10.53" x2="4.27" y1="65.46" y2="50.67" class="cls-5"/><line x1="-4.19" x2="10.61" y1="65.46" y2="50.67" class="cls-5"/><line x1="2.15" x2="16.95" y1="65.46" y2="50.67" class="cls-5"/><line x1="8.49" x2="23.29" y1="65.46" y2="50.67" class="cls-5"/><line x1="14.83" x2="29.63" y1="65.46" y2="50.67" class="cls-5"/><line x1="21.17" x2="35.97" y1="65.46" y2="50.67" class="cls-5"/><line x1="27.51" x2="42.31" y1="65.46" y2="50.67" class="cls-5"/><line x1="33.85" x2="48.65" y1="65.46" y2="50.67" class="cls-5"/><line x1="40.19" x2="54.99" y1="65.46" y2="50.67" class="cls-5"/><line x1="46.53" x2="61.33" y1="65.46" y2="50.67" class="cls-5"/><line x1="52.87" x2="67.67" y1="65.46" y2="50.67" class="cls-5"/><line x1="59.21" x2="74.01" y1="65.46" y2="50.67" class="cls-5"/><line x1="65.55" x2="80.35" y1="65.46" y2="50.67" class="cls-5"/><line x1="71.89" x2="86.69" y1="65.46" y2="50.67" class="cls-5"/><line x1="78.23" x2="93.03" y1="65.46" y2="50.67" class="cls-5"/><line x1="84.57" x2="99.37" y1="65.46" y2="50.67" class="cls-5"/><line x1="90.91" x2="105.71" y1="65.46" y2="50.67" class="cls-5"/><line x1="97.25" x2="112.05" y1="65.46" y2="50.67" class="cls-5"/></g><line x1="32.12" x2="32.12" y1="50.99" y2="66.44" class="cls-5"/><rect width="84.6" height="25.67" x="14.7" y="20.1" class="cls-2"/><circle cx="26.26" cy="29.13" r="2.45" class="cls-3"/><g class="cls-6"><line x1="-10.53" x2="4.27" y1="40.33" y2="25.54" class="cls-5"/><line x1="-4.19" x2="10.61" y1="40.33" y2="25.54" class="cls-5"/><line x1="2.15" x2="16.95" y1="40.33" y2="25.54" class="cls-5"/><line x1="8.49" x2="23.29" y1="40.33" y2="25.54" class="cls-5"/><line x1="14.83" x2="29.63" y1="40.33" y2="25.54" class="cls-5"/><line x1="21.17" x2="35.97" y1="40.33" y2="25.54" class="cls-5"/><line x1="27.51" x2="42.31" y1="40.33" y2="25.54" class="cls-5"/><line x1="33.85" x2="48.65" y1="40.33" y2="25.54" class="cls-5"/><line x1="40.19" x2="54.99" y1="40.33" y2="25.54" class="cls-5"/><line x1="46.53" x2="61.33" y1="40.33" y2="25.54" class="cls-5"/><line x1="52.87" x2="67.67" y1="40.33" y2="25.54" class="cls-5"/><line x1="59.21" x2="74.01" y1="40.33" y2="25.54" class="cls-5"/><line x1="65.55" x2="80.35" y1="40.33" y2="25.54" class="cls-5"/><line x1="71.89" x2="86.69" y1="40.33" y2="25.54" class="cls-5"/><line x1="78.23" x2="93.03" y1="40.33" y2="25.54" class="cls-5"/><line x1="84.57" x2="99.37" y1="40.33" y2="25.54" class="cls-5"/><line x1="90.91" x2="105.71" y1="40.33" y2="25.54" class="cls-5"/><line x1="97.25" x2="112.05" y1="40.33" y2="25.54" class="cls-5"/></g><line x1="32.12" x2="32.12" y1="25.85" y2="41.31" class="cls-5"/></svg>