<svg xmlns="http://www.w3.org/2000/svg" id="Layer_1" data-name="Layer 1" viewBox="0 0 114 91"><defs><style>.cls-1{fill:#2cc5f4}.cls-1,.cls-2,.cls-3{stroke:#08497c;stroke-miterlimit:10}.cls-1,.cls-3{stroke-width:2px}.cls-2{fill:none}.cls-3{fill:#fff}</style></defs><title>icon-series</title><polygon points="66.67 26.03 77 35.9 77 46 56.15 46 66.67 26.03" class="cls-1"/><polygon points="47.91 26.03 37 35.9 37 46 59.02 46 47.91 26.03" class="cls-1"/><path d="M69.67,47.61c0,20.92-5.65,18-12.61,18s-12.61,3-12.61-18S53.75,3.76,57.06,3.76,69.67,26.69,69.67,47.61Z" class="cls-1"/><polygon points="44.79 47.81 34 57.45 34 68 55.76 68 44.79 47.81" class="cls-1"/><polygon points="69.77 47.81 80 57.45 80 68 59.34 68 69.77 47.81" class="cls-1"/><line x1="33.84" x2="33.84" y1="71.04" y2="87.24" class="cls-2"/><line x1="41.21" x2="41.21" y1="71.04" y2="79.27" class="cls-2"/><line x1="80.42" x2="80.42" y1="71.04" y2="87.24" class="cls-2"/><line x1="73.05" x2="73.05" y1="71.04" y2="79.27" class="cls-2"/><line x1="57.06" x2="57.06" y1="3.76" y2="65.52" class="cls-2"/><circle cx="57.16" cy="22.1" r="4.84" class="cls-3"/></svg>