<svg xmlns="http://www.w3.org/2000/svg" id="Layer_1" data-name="Layer 1" viewBox="0 0 114 91"><defs><style>.cls-1{fill:#2cc5f4}.cls-1,.cls-2,.cls-3{stroke:#08497c;stroke-miterlimit:10}.cls-1,.cls-2{stroke-width:2px}.cls-2{fill:#fff}.cls-3{fill:none}</style></defs><title>icon-series</title><circle cx="57.09" cy="52.61" r="25.49" class="cls-1"/><polygon points="46 44.97 46 57.97 57.17 64.65 68 58.25 68 44.97 57.34 39.05 46 44.97" class="cls-2"/><polyline points="46.6 45.45 57.6 51.85 68.6 45.35" class="cls-3"/><line x1="57.43" x2="57.6" y1="64.65" y2="51.85" class="cls-3"/><polygon points="46 13.97 46 26.97 57.17 33.65 68 27.25 68 13.97 57.34 8.05 46 13.97" class="cls-2"/><polyline points="46.6 14.45 57.6 20.85 68.6 14.35" class="cls-3"/><line x1="57.43" x2="57.6" y1="33.65" y2="20.85" class="cls-3"/><polygon points="20 62.97 20 75.97 31.17 82.65 42 76.25 42 62.97 31.34 57.05 20 62.97" class="cls-2"/><polyline points="20.6 63.45 31.6 69.85 42.6 63.35" class="cls-3"/><line x1="31.43" x2="31.6" y1="82.65" y2="69.85" class="cls-3"/><line x1="51.93" x2="38.93" y1="54.16" y2="62.35" class="cls-1"/><polygon points="94 62.97 94 75.97 82.83 82.65 72 76.25 72 62.97 82.66 57.05 94 62.97" class="cls-2"/><polyline points="93.59 63.45 82.59 69.85 71.59 63.35" class="cls-3"/><line x1="82.76" x2="82.59" y1="82.65" y2="69.85" class="cls-3"/><line x1="62.26" x2="75.26" y1="54.16" y2="62.35" class="cls-1"/><line x1="57" x2="57" y1="45" y2="34" class="cls-1"/></svg>