<svg xmlns="http://www.w3.org/2000/svg" id="Layer_1" data-name="Layer 1" viewBox="0 0 114 91"><defs><style>.cls-1{fill:#fff}.cls-1,.cls-2,.cls-3{stroke:#08497c;stroke-miterlimit:10}.cls-2{fill:#2cc5f4}.cls-3{fill:none}</style></defs><title>icon-series</title><rect width="46.91" height="30.58" x="33.78" y="20.49" class="cls-1"/><polygon points="68.72 63.5 57.5 63.5 57.5 53.5 54.5 53.5 54.5 63.5 44.72 63.5 42.72 70.5 45.72 70.5 47.72 66.5 54.5 66.5 54.5 70.5 57.5 70.5 57.5 66.5 65.72 66.5 67.72 70.5 70.72 70.5 68.72 63.5" class="cls-2"/><rect width="9.76" height="3.4" x="52.35" y="25.78" class="cls-1"/><rect width="9.76" height="3.4" x="38.52" y="39.23" class="cls-1"/><rect width="9.76" height="3.4" x="52.35" y="39.23" class="cls-1"/><rect width="9.76" height="3.4" x="66.11" y="39.23" class="cls-1"/><line x1="57.5" x2="57.5" y1="30" y2="38" class="cls-1"/><polyline points="43.5 38 43.5 34.5 70.5 34.5 70.5 38" class="cls-3"/><rect width="46.91" height="3.06" x="33.78" y="50.08" class="cls-2"/><line x1="89" x2="73.44" y1="67.49" y2="67.49" class="cls-3"/><line x1="40.56" x2="25" y1="67.49" y2="67.49" class="cls-3"/></svg>