<svg xmlns="http://www.w3.org/2000/svg" id="Layer_1" data-name="Layer 1" viewBox="0 0 114 91"><defs><style>.cls-1,.cls-2{fill:#fff}.cls-1,.cls-2,.cls-3,.cls-4,.cls-5{stroke:#08497c;stroke-miterlimit:10}.cls-1,.cls-3{stroke-width:2px}.cls-3{fill:#2cc5f4}.cls-4,.cls-5{fill:none}.cls-5{stroke-width:.75px}</style></defs><title>icon-series</title><rect width="88.05" height="55.55" x="12.97" y="8.77" class="cls-1" rx="2.32" ry="2.32"/><circle cx="20.21" cy="15.18" r="2.77" class="cls-2"/><circle cx="28.31" cy="15.18" r="2.77" class="cls-2"/><path d="M82,42A13,13,0,0,0,69,29h0A13,13,0,0,0,56,42V62A13,13,0,0,0,69,75h0A13,13,0,0,0,82,62V42ZM78,57.32A8.68,8.68,0,0,1,69.32,66H68.68A8.68,8.68,0,0,1,60,57.32V42.68A8.68,8.68,0,0,1,68.68,34h0.65A8.68,8.68,0,0,1,78,42.68V57.32Z" class="cls-3"/><rect width="36.89" height="30.26" x="51.98" y="51.97" class="cls-3"/><line x1="51.98" x2="88.87" y1="59.82" y2="59.82" class="cls-4"/><line x1="51.98" x2="88.87" y1="66.24" y2="66.24" class="cls-4"/><line x1="51.98" x2="88.87" y1="72.67" y2="72.67" class="cls-4"/><line x1="38.42" x2="38.42" y1="8.94" y2="64.33" class="cls-5"/></svg>