<svg xmlns="http://www.w3.org/2000/svg" xmlns:xlink="http://www.w3.org/1999/xlink" id="Layer_1" x="0" y="0" version="1.1" viewBox="0 0 80 80" xml:space="preserve" style="enable-background:new 0 0 80 80"><style type="text/css">.st0{fill:#fff}.st1{fill:#0b4a7c}.st2{fill:#2fc5f4}.st3{fill:none}</style><g><g><g><rect width="56.6" height="36.9" x="13" y="11.1" class="st0"/><path d="M70.6,49H12V10.1h58.6V49z M14,47h54.6V12.1H14V47z" class="st1"/></g><g><polygon points="55.2 64.5 40.5 64.5 40.5 52.5 37.5 52.5 37.5 64.5 26.2 64.5 23.8 72.5 27.4 72.5 29.8 67.5 37.5 67.5 37.5 72.5 40.5 72.5 40.5 67.5 51.5 67.5 53.9 72.5 57.6 72.5" class="st2"/><path d="M58.2,72.5h-4.6l-2.4-5h-9.7v5h-4v-5h-7.4l-2.4,5h-4.6l2.7-9h11.7v-12h4v12h14L58.2,72.5z M54.3,71.5h2.6 l-2.1-7H40.5v-12h-2v12H26.6l-2.1,7h2.6l2.4-5h9v5h2v-5h11.3L54.3,71.5z" class="st1"/></g><g><rect width="11.8" height="4.1" x="35.4" y="17.4" class="st0"/><path d="M47.7,22H34.9v-5.1h12.8V22z M35.9,21h10.8v-3.1H35.9V21z" class="st1"/></g><g><rect width="11.8" height="4.1" x="18.7" y="33.7" class="st0"/><path d="M31,38.3H18.2v-5.1H31V38.3z M19.2,37.3H30v-3.1H19.2V37.3z" class="st1"/></g><g><rect width="11.8" height="4.1" x="35.4" y="33.7" class="st0"/><path d="M47.7,38.3H34.9v-5.1h12.8V38.3z M35.9,37.3h10.8v-3.1H35.9V37.3z" class="st1"/></g><g><rect width="11.8" height="4.1" x="52" y="33.7" class="st0"/><path d="M64.3,38.3H51.5v-5.1h12.8V38.3z M52.5,37.3h10.8v-3.1H52.5V37.3z" class="st1"/></g><g><line x1="40.5" x2="40.5" y1="23.5" y2="32.5" class="st3"/><rect width="1" height="9" x="40.5" y="23.5" class="st1"/></g><polygon points="57.5 32.5 56.5 32.5 56.5 29.5 25.5 29.5 25.5 32.5 24.5 32.5 24.5 28.5 57.5 28.5" class="st1"/><g><rect width="56.6" height="3.7" x="13" y="46.8" class="st2"/><path d="M70.1,50.9H12.5v-4.7h57.6V50.9z M13.5,49.9h55.6v-2.7H13.5V49.9z" class="st1"/></g></g><rect width="18.8" height="1" x="60.8" y="67.3" class="st1"/><rect width="18.8" height="1" x="2.4" y="67.3" class="st1"/></g></svg>